M48
INCH
T01C0.0200
T02C0.0150
T03C0.0300
T04C0.0700
T05C0.0400
T06C0.0600
%
T01
X+000905Y-005551
X+004960Y-005551
X+001850Y-005551
X+002913Y-009330
X+001850Y-002401
X+021259Y-003070
X+004960Y-002401
X+008425Y-002480
X+009212Y-002480
X+019488Y-013417
X+009133Y-013543
X+015944Y-013543
X+000669Y-003228
X+005708Y-006141
X+005708Y-005393
X+011614Y+000944
X-000354Y-007716
X+014606Y-015157
T02
X+014763Y-009842
T03
X+000856Y-010511
X-000393Y-010511
X+004606Y+000000
X+002606Y+000000
T04
X+001102Y-013149
X-000457Y-013149
T05
X+020866Y-013417
X+020866Y-012417
X+020866Y-011417
X-000393Y-002551
X-000393Y-003551
X-000393Y-004551
X-000393Y-005551
T06
X+013385Y+000000
X+000000Y+000000
X+000000Y-016535
X+013385Y-016535
M30
