solid 
   facet normal 0.000000e+00 0.000000e+00 1.000000e+00
      outer loop
         vertex -2.432534e+01 -1.267708e+01 8.320602e+00
         vertex -2.432534e+01 -4.220180e+01 8.320602e+00
         vertex 2.432534e+01 -4.220180e+01 8.320602e+00
      endloop
   endfacet
   facet normal 0.000000e+00 0.000000e+00 1.000000e+00
      outer loop
         vertex 2.432534e+01 -4.220180e+01 8.320602e+00
         vertex 2.432534e+01 -1.267708e+01 8.320602e+00
         vertex -2.432534e+01 -1.267708e+01 8.320602e+00
      endloop
   endfacet
   facet normal 1.000000e+00 0.000000e+00 0.000000e+00
      outer loop
         vertex 2.432534e+01 -1.267708e+01 0.000000e+00
         vertex 2.432534e+01 -1.267708e+01 8.320602e+00
         vertex 2.432534e+01 -4.220180e+01 8.320602e+00
      endloop
   endfacet
   facet normal 1.000000e+00 0.000000e+00 0.000000e+00
      outer loop
         vertex 2.432534e+01 -4.220180e+01 8.320602e+00
         vertex 2.432534e+01 -4.220180e+01 0.000000e+00
         vertex 2.432534e+01 -1.267708e+01 0.000000e+00
      endloop
   endfacet
   facet normal -0.000000e+00 1.000000e+00 0.000000e+00
      outer loop
         vertex -2.432534e+01 -1.267708e+01 0.000000e+00
         vertex -2.432534e+01 -1.267708e+01 8.320602e+00
         vertex 2.432534e+01 -1.267708e+01 8.320602e+00
      endloop
   endfacet
   facet normal 0.000000e+00 1.000000e+00 -0.000000e+00
      outer loop
         vertex 2.432534e+01 -1.267708e+01 8.320602e+00
         vertex 2.432534e+01 -1.267708e+01 0.000000e+00
         vertex -2.432534e+01 -1.267708e+01 0.000000e+00
      endloop
   endfacet
   facet normal -1.000000e+00 0.000000e+00 0.000000e+00
      outer loop
         vertex -2.432534e+01 -4.220180e+01 0.000000e+00
         vertex -2.432534e+01 -4.220180e+01 8.320602e+00
         vertex -2.432534e+01 -1.267708e+01 8.320602e+00
      endloop
   endfacet
   facet normal -1.000000e+00 0.000000e+00 0.000000e+00
      outer loop
         vertex -2.432534e+01 -1.267708e+01 8.320602e+00
         vertex -2.432534e+01 -1.267708e+01 0.000000e+00
         vertex -2.432534e+01 -4.220180e+01 0.000000e+00
      endloop
   endfacet
   facet normal -0.000000e+00 -1.000000e+00 -0.000000e+00
      outer loop
         vertex 2.432534e+01 -4.220180e+01 0.000000e+00
         vertex 2.432534e+01 -4.220180e+01 8.320602e+00
         vertex -2.432534e+01 -4.220180e+01 8.320602e+00
      endloop
   endfacet
   facet normal 0.000000e+00 -1.000000e+00 0.000000e+00
      outer loop
         vertex -2.432534e+01 -4.220180e+01 8.320602e+00
         vertex -2.432534e+01 -4.220180e+01 0.000000e+00
         vertex 2.432534e+01 -4.220180e+01 0.000000e+00
      endloop
   endfacet
   facet normal 0.000000e+00 0.000000e+00 -1.000000e+00
      outer loop
         vertex 2.432534e+01 -1.267708e+01 0.000000e+00
         vertex 2.432534e+01 -4.220180e+01 0.000000e+00
         vertex -2.432534e+01 -4.220180e+01 0.000000e+00
      endloop
   endfacet
   facet normal 0.000000e+00 0.000000e+00 -1.000000e+00
      outer loop
         vertex -2.432534e+01 -4.220180e+01 0.000000e+00
         vertex -2.432534e+01 -1.267708e+01 0.000000e+00
         vertex 2.432534e+01 -1.267708e+01 0.000000e+00
      endloop
   endfacet
endsolid
