solid 
   facet normal 0.000000e+00 0.000000e+00 1.000000e+00
      outer loop
         vertex 1.500000e+00 -5.210468e+00 3.500000e+00
         vertex 1.500000e+00 -1.850876e+00 3.500000e+00
         vertex -1.466526e-14 -3.710468e+00 3.500000e+00
      endloop
   endfacet
   facet normal -0.000000e+00 0.000000e+00 1.000000e+00
      outer loop
         vertex 1.500000e+00 -1.850876e+00 3.500000e+00
         vertex -1.500000e+00 -1.850876e+00 3.500000e+00
         vertex -1.466526e-14 -3.710468e+00 3.500000e+00
      endloop
   endfacet
   facet normal 0.000000e+00 0.000000e+00 1.000000e+00
      outer loop
         vertex -1.500000e+00 -1.850876e+00 3.500000e+00
         vertex -1.500000e+00 -5.210468e+00 3.500000e+00
         vertex -1.466526e-14 -3.710468e+00 3.500000e+00
      endloop
   endfacet
   facet normal 0.000000e+00 0.000000e+00 1.000000e+00
      outer loop
         vertex -1.500000e+00 5.210468e+00 3.500000e+00
         vertex -1.500000e+00 1.149124e+00 3.500000e+00
         vertex 4.544013e-16 3.710468e+00 3.500000e+00
      endloop
   endfacet
   facet normal 0.000000e+00 0.000000e+00 1.000000e+00
      outer loop
         vertex -1.500000e+00 1.149124e+00 3.500000e+00
         vertex 1.500000e+00 1.149124e+00 3.500000e+00
         vertex 4.544013e-16 3.710468e+00 3.500000e+00
      endloop
   endfacet
   facet normal 0.000000e+00 0.000000e+00 1.000000e+00
      outer loop
         vertex 1.500000e+00 1.149124e+00 3.500000e+00
         vertex 1.500000e+00 5.210468e+00 3.500000e+00
         vertex 4.544013e-16 3.710468e+00 3.500000e+00
      endloop
   endfacet
   facet normal 1.000000e+00 0.000000e+00 0.000000e+00
      outer loop
         vertex 1.500000e+00 -1.846875e+00 3.390507e+00
         vertex 1.500000e+00 -1.850876e+00 3.500000e+00
         vertex 1.500000e+00 -5.210468e+00 3.500000e+00
      endloop
   endfacet
   facet normal 1.000000e+00 0.000000e+00 0.000000e+00
      outer loop
         vertex 1.500000e+00 -5.210468e+00 3.500000e+00
         vertex 1.500000e+00 -5.210468e+00 0.000000e+00
         vertex 1.500000e+00 -1.658950e+00 2.765873e+00
      endloop
   endfacet
   facet normal 1.000000e+00 0.000000e+00 0.000000e+00
      outer loop
         vertex 1.500000e+00 -5.210468e+00 0.000000e+00
         vertex 1.500000e+00 5.210468e+00 0.000000e+00
         vertex 1.500000e+00 -2.960933e-01 2.001001e+00
      endloop
   endfacet
   facet normal 1.000000e+00 0.000000e+00 0.000000e+00
      outer loop
         vertex 1.500000e+00 5.210468e+00 0.000000e+00
         vertex 1.500000e+00 5.210468e+00 3.500000e+00
         vertex 1.500000e+00 1.007296e+00 2.863315e+00
      endloop
   endfacet
   facet normal 1.000000e+00 -0.000000e+00 0.000000e+00
      outer loop
         vertex 1.500000e+00 5.210468e+00 3.500000e+00
         vertex 1.500000e+00 1.149124e+00 3.500000e+00
         vertex 1.500000e+00 1.145122e+00 3.390507e+00
      endloop
   endfacet
   facet normal 1.000000e+00 0.000000e+00 0.000000e+00
      outer loop
         vertex 1.500000e+00 1.145122e+00 3.390507e+00
         vertex 1.500000e+00 1.133139e+00 3.281598e+00
         vertex 1.500000e+00 5.210468e+00 3.500000e+00
      endloop
   endfacet
   facet normal 1.000000e+00 0.000000e+00 0.000000e+00
      outer loop
         vertex 1.500000e+00 1.133139e+00 3.281598e+00
         vertex 1.500000e+00 1.113238e+00 3.173855e+00
         vertex 1.500000e+00 5.210468e+00 3.500000e+00
      endloop
   endfacet
   facet normal 1.000000e+00 0.000000e+00 0.000000e+00
      outer loop
         vertex 1.500000e+00 1.113238e+00 3.173855e+00
         vertex 1.500000e+00 1.085525e+00 3.067851e+00
         vertex 1.500000e+00 5.210468e+00 3.500000e+00
      endloop
   endfacet
   facet normal 1.000000e+00 0.000000e+00 0.000000e+00
      outer loop
         vertex 1.500000e+00 1.085525e+00 3.067851e+00
         vertex 1.500000e+00 1.050148e+00 2.964154e+00
         vertex 1.500000e+00 5.210468e+00 3.500000e+00
      endloop
   endfacet
   facet normal 1.000000e+00 0.000000e+00 0.000000e+00
      outer loop
         vertex 1.500000e+00 1.050148e+00 2.964154e+00
         vertex 1.500000e+00 1.007296e+00 2.863315e+00
         vertex 1.500000e+00 5.210468e+00 3.500000e+00
      endloop
   endfacet
   facet normal 1.000000e+00 -0.000000e+00 0.000000e+00
      outer loop
         vertex 1.500000e+00 1.007296e+00 2.863315e+00
         vertex 1.500000e+00 9.571978e-01 2.765873e+00
         vertex 1.500000e+00 5.210468e+00 0.000000e+00
      endloop
   endfacet
   facet normal 1.000000e+00 -0.000000e+00 0.000000e+00
      outer loop
         vertex 1.500000e+00 9.571978e-01 2.765873e+00
         vertex 1.500000e+00 9.001204e-01 2.672348e+00
         vertex 1.500000e+00 5.210468e+00 0.000000e+00
      endloop
   endfacet
   facet normal 1.000000e+00 -0.000000e+00 0.000000e+00
      outer loop
         vertex 1.500000e+00 9.001204e-01 2.672348e+00
         vertex 1.500000e+00 8.363684e-01 2.583239e+00
         vertex 1.500000e+00 5.210468e+00 0.000000e+00
      endloop
   endfacet
   facet normal 1.000000e+00 -0.000000e+00 0.000000e+00
      outer loop
         vertex 1.500000e+00 8.363684e-01 2.583239e+00
         vertex 1.500000e+00 7.662820e-01 2.499022e+00
         vertex 1.500000e+00 5.210468e+00 0.000000e+00
      endloop
   endfacet
   facet normal 1.000000e+00 -0.000000e+00 0.000000e+00
      outer loop
         vertex 1.500000e+00 7.662820e-01 2.499022e+00
         vertex 1.500000e+00 6.902350e-01 2.420145e+00
         vertex 1.500000e+00 5.210468e+00 0.000000e+00
      endloop
   endfacet
   facet normal 1.000000e+00 -0.000000e+00 0.000000e+00
      outer loop
         vertex 1.500000e+00 6.902350e-01 2.420145e+00
         vertex 1.500000e+00 6.086332e-01 2.347029e+00
         vertex 1.500000e+00 5.210468e+00 0.000000e+00
      endloop
   endfacet
   facet normal 1.000000e+00 -0.000000e+00 0.000000e+00
      outer loop
         vertex 1.500000e+00 6.086332e-01 2.347029e+00
         vertex 1.500000e+00 5.219121e-01 2.280065e+00
         vertex 1.500000e+00 5.210468e+00 0.000000e+00
      endloop
   endfacet
   facet normal 1.000000e+00 -0.000000e+00 0.000000e+00
      outer loop
         vertex 1.500000e+00 5.219121e-01 2.280065e+00
         vertex 1.500000e+00 4.305342e-01 2.219610e+00
         vertex 1.500000e+00 5.210468e+00 0.000000e+00
      endloop
   endfacet
   facet normal 1.000000e+00 -0.000000e+00 0.000000e+00
      outer loop
         vertex 1.500000e+00 4.305342e-01 2.219610e+00
         vertex 1.500000e+00 3.349872e-01 2.165987e+00
         vertex 1.500000e+00 5.210468e+00 0.000000e+00
      endloop
   endfacet
   facet normal 1.000000e+00 -0.000000e+00 0.000000e+00
      outer loop
         vertex 1.500000e+00 3.349872e-01 2.165987e+00
         vertex 1.500000e+00 2.357808e-01 2.119481e+00
         vertex 1.500000e+00 5.210468e+00 0.000000e+00
      endloop
   endfacet
   facet normal 1.000000e+00 -0.000000e+00 0.000000e+00
      outer loop
         vertex 1.500000e+00 2.357808e-01 2.119481e+00
         vertex 1.500000e+00 1.334443e-01 2.080340e+00
         vertex 1.500000e+00 5.210468e+00 0.000000e+00
      endloop
   endfacet
   facet normal 1.000000e+00 -0.000000e+00 0.000000e+00
      outer loop
         vertex 1.500000e+00 1.334443e-01 2.080340e+00
         vertex 1.500000e+00 2.852377e-02 2.048774e+00
         vertex 1.500000e+00 5.210468e+00 0.000000e+00
      endloop
   endfacet
   facet normal 1.000000e+00 -0.000000e+00 0.000000e+00
      outer loop
         vertex 1.500000e+00 2.852377e-02 2.048774e+00
         vertex 1.500000e+00 -7.842103e-02 2.024951e+00
         vertex 1.500000e+00 5.210468e+00 0.000000e+00
      endloop
   endfacet
   facet normal 1.000000e+00 -0.000000e+00 0.000000e+00
      outer loop
         vertex 1.500000e+00 -7.842103e-02 2.024951e+00
         vertex 1.500000e+00 -1.868195e-01 2.008998e+00
         vertex 1.500000e+00 5.210468e+00 0.000000e+00
      endloop
   endfacet
   facet normal 1.000000e+00 -0.000000e+00 0.000000e+00
      outer loop
         vertex 1.500000e+00 -1.868195e-01 2.008998e+00
         vertex 1.500000e+00 -2.960933e-01 2.001001e+00
         vertex 1.500000e+00 5.210468e+00 0.000000e+00
      endloop
   endfacet
   facet normal 1.000000e+00 -0.000000e+00 0.000000e+00
      outer loop
         vertex 1.500000e+00 -2.960933e-01 2.001001e+00
         vertex 1.500000e+00 -4.056593e-01 2.001001e+00
         vertex 1.500000e+00 -5.210468e+00 0.000000e+00
      endloop
   endfacet
   facet normal 1.000000e+00 0.000000e+00 0.000000e+00
      outer loop
         vertex 1.500000e+00 -4.056593e-01 2.001001e+00
         vertex 1.500000e+00 -5.149331e-01 2.008998e+00
         vertex 1.500000e+00 -5.210468e+00 0.000000e+00
      endloop
   endfacet
   facet normal 1.000000e+00 0.000000e+00 0.000000e+00
      outer loop
         vertex 1.500000e+00 -5.149331e-01 2.008998e+00
         vertex 1.500000e+00 -6.233316e-01 2.024951e+00
         vertex 1.500000e+00 -5.210468e+00 0.000000e+00
      endloop
   endfacet
   facet normal 1.000000e+00 0.000000e+00 0.000000e+00
      outer loop
         vertex 1.500000e+00 -6.233316e-01 2.024951e+00
         vertex 1.500000e+00 -7.302764e-01 2.048774e+00
         vertex 1.500000e+00 -5.210468e+00 0.000000e+00
      endloop
   endfacet
   facet normal 1.000000e+00 0.000000e+00 0.000000e+00
      outer loop
         vertex 1.500000e+00 -7.302764e-01 2.048774e+00
         vertex 1.500000e+00 -8.351969e-01 2.080340e+00
         vertex 1.500000e+00 -5.210468e+00 0.000000e+00
      endloop
   endfacet
   facet normal 1.000000e+00 0.000000e+00 0.000000e+00
      outer loop
         vertex 1.500000e+00 -8.351969e-01 2.080340e+00
         vertex 1.500000e+00 -9.375334e-01 2.119481e+00
         vertex 1.500000e+00 -5.210468e+00 0.000000e+00
      endloop
   endfacet
   facet normal 1.000000e+00 0.000000e+00 0.000000e+00
      outer loop
         vertex 1.500000e+00 -9.375334e-01 2.119481e+00
         vertex 1.500000e+00 -1.036740e+00 2.165987e+00
         vertex 1.500000e+00 -5.210468e+00 0.000000e+00
      endloop
   endfacet
   facet normal 1.000000e+00 0.000000e+00 0.000000e+00
      outer loop
         vertex 1.500000e+00 -1.036740e+00 2.165987e+00
         vertex 1.500000e+00 -1.132287e+00 2.219610e+00
         vertex 1.500000e+00 -5.210468e+00 0.000000e+00
      endloop
   endfacet
   facet normal 1.000000e+00 0.000000e+00 0.000000e+00
      outer loop
         vertex 1.500000e+00 -1.132287e+00 2.219610e+00
         vertex 1.500000e+00 -1.223665e+00 2.280065e+00
         vertex 1.500000e+00 -5.210468e+00 0.000000e+00
      endloop
   endfacet
   facet normal 1.000000e+00 0.000000e+00 0.000000e+00
      outer loop
         vertex 1.500000e+00 -1.223665e+00 2.280065e+00
         vertex 1.500000e+00 -1.310386e+00 2.347029e+00
         vertex 1.500000e+00 -5.210468e+00 0.000000e+00
      endloop
   endfacet
   facet normal 1.000000e+00 0.000000e+00 0.000000e+00
      outer loop
         vertex 1.500000e+00 -1.310386e+00 2.347029e+00
         vertex 1.500000e+00 -1.391988e+00 2.420145e+00
         vertex 1.500000e+00 -5.210468e+00 0.000000e+00
      endloop
   endfacet
   facet normal 1.000000e+00 0.000000e+00 0.000000e+00
      outer loop
         vertex 1.500000e+00 -1.391988e+00 2.420145e+00
         vertex 1.500000e+00 -1.468035e+00 2.499022e+00
         vertex 1.500000e+00 -5.210468e+00 0.000000e+00
      endloop
   endfacet
   facet normal 1.000000e+00 0.000000e+00 0.000000e+00
      outer loop
         vertex 1.500000e+00 -1.468035e+00 2.499022e+00
         vertex 1.500000e+00 -1.538121e+00 2.583239e+00
         vertex 1.500000e+00 -5.210468e+00 0.000000e+00
      endloop
   endfacet
   facet normal 1.000000e+00 0.000000e+00 0.000000e+00
      outer loop
         vertex 1.500000e+00 -1.538121e+00 2.583239e+00
         vertex 1.500000e+00 -1.601873e+00 2.672348e+00
         vertex 1.500000e+00 -5.210468e+00 0.000000e+00
      endloop
   endfacet
   facet normal 1.000000e+00 0.000000e+00 0.000000e+00
      outer loop
         vertex 1.500000e+00 -1.601873e+00 2.672348e+00
         vertex 1.500000e+00 -1.658950e+00 2.765873e+00
         vertex 1.500000e+00 -5.210468e+00 0.000000e+00
      endloop
   endfacet
   facet normal 1.000000e+00 0.000000e+00 0.000000e+00
      outer loop
         vertex 1.500000e+00 -1.658950e+00 2.765873e+00
         vertex 1.500000e+00 -1.709049e+00 2.863315e+00
         vertex 1.500000e+00 -5.210468e+00 3.500000e+00
      endloop
   endfacet
   facet normal 1.000000e+00 0.000000e+00 0.000000e+00
      outer loop
         vertex 1.500000e+00 -1.709049e+00 2.863315e+00
         vertex 1.500000e+00 -1.751901e+00 2.964154e+00
         vertex 1.500000e+00 -5.210468e+00 3.500000e+00
      endloop
   endfacet
   facet normal 1.000000e+00 0.000000e+00 0.000000e+00
      outer loop
         vertex 1.500000e+00 -1.751901e+00 2.964154e+00
         vertex 1.500000e+00 -1.787277e+00 3.067851e+00
         vertex 1.500000e+00 -5.210468e+00 3.500000e+00
      endloop
   endfacet
   facet normal 1.000000e+00 0.000000e+00 0.000000e+00
      outer loop
         vertex 1.500000e+00 -1.787277e+00 3.067851e+00
         vertex 1.500000e+00 -1.814990e+00 3.173855e+00
         vertex 1.500000e+00 -5.210468e+00 3.500000e+00
      endloop
   endfacet
   facet normal 1.000000e+00 0.000000e+00 0.000000e+00
      outer loop
         vertex 1.500000e+00 -1.814990e+00 3.173855e+00
         vertex 1.500000e+00 -1.834891e+00 3.281598e+00
         vertex 1.500000e+00 -5.210468e+00 3.500000e+00
      endloop
   endfacet
   facet normal 1.000000e+00 0.000000e+00 0.000000e+00
      outer loop
         vertex 1.500000e+00 -1.834891e+00 3.281598e+00
         vertex 1.500000e+00 -1.846875e+00 3.390507e+00
         vertex 1.500000e+00 -5.210468e+00 3.500000e+00
      endloop
   endfacet
   facet normal -1.000000e+00 -0.000000e+00 -0.000000e+00
      outer loop
         vertex -1.500000e+00 -5.210468e+00 3.500000e+00
         vertex -1.500000e+00 -1.850876e+00 3.500000e+00
         vertex -1.500000e+00 -1.846875e+00 3.390507e+00
      endloop
   endfacet
   facet normal -1.000000e+00 0.000000e+00 0.000000e+00
      outer loop
         vertex -1.500000e+00 -1.846875e+00 3.390507e+00
         vertex -1.500000e+00 -1.834891e+00 3.281598e+00
         vertex -1.500000e+00 -5.210468e+00 3.500000e+00
      endloop
   endfacet
   facet normal -1.000000e+00 0.000000e+00 0.000000e+00
      outer loop
         vertex -1.500000e+00 -1.834891e+00 3.281598e+00
         vertex -1.500000e+00 -1.814990e+00 3.173855e+00
         vertex -1.500000e+00 -5.210468e+00 3.500000e+00
      endloop
   endfacet
   facet normal -1.000000e+00 0.000000e+00 0.000000e+00
      outer loop
         vertex -1.500000e+00 -1.814990e+00 3.173855e+00
         vertex -1.500000e+00 -1.787277e+00 3.067851e+00
         vertex -1.500000e+00 -5.210468e+00 3.500000e+00
      endloop
   endfacet
   facet normal -1.000000e+00 0.000000e+00 0.000000e+00
      outer loop
         vertex -1.500000e+00 -1.787277e+00 3.067851e+00
         vertex -1.500000e+00 -1.751901e+00 2.964154e+00
         vertex -1.500000e+00 -5.210468e+00 3.500000e+00
      endloop
   endfacet
   facet normal -1.000000e+00 0.000000e+00 0.000000e+00
      outer loop
         vertex -1.500000e+00 -1.751901e+00 2.964154e+00
         vertex -1.500000e+00 -1.709049e+00 2.863315e+00
         vertex -1.500000e+00 -5.210468e+00 3.500000e+00
      endloop
   endfacet
   facet normal -1.000000e+00 0.000000e+00 0.000000e+00
      outer loop
         vertex -1.500000e+00 -1.709049e+00 2.863315e+00
         vertex -1.500000e+00 -1.658950e+00 2.765873e+00
         vertex -1.500000e+00 -5.210468e+00 3.500000e+00
      endloop
   endfacet
   facet normal -1.000000e+00 -0.000000e+00 0.000000e+00
      outer loop
         vertex -1.500000e+00 -1.658950e+00 2.765873e+00
         vertex -1.500000e+00 -1.601873e+00 2.672348e+00
         vertex -1.500000e+00 -5.210468e+00 0.000000e+00
      endloop
   endfacet
   facet normal -1.000000e+00 -0.000000e+00 0.000000e+00
      outer loop
         vertex -1.500000e+00 -1.601873e+00 2.672348e+00
         vertex -1.500000e+00 -1.538121e+00 2.583239e+00
         vertex -1.500000e+00 -5.210468e+00 0.000000e+00
      endloop
   endfacet
   facet normal -1.000000e+00 -0.000000e+00 0.000000e+00
      outer loop
         vertex -1.500000e+00 -1.538121e+00 2.583239e+00
         vertex -1.500000e+00 -1.468035e+00 2.499022e+00
         vertex -1.500000e+00 -5.210468e+00 0.000000e+00
      endloop
   endfacet
   facet normal -1.000000e+00 -0.000000e+00 0.000000e+00
      outer loop
         vertex -1.500000e+00 -1.468035e+00 2.499022e+00
         vertex -1.500000e+00 -1.391988e+00 2.420145e+00
         vertex -1.500000e+00 -5.210468e+00 0.000000e+00
      endloop
   endfacet
   facet normal -1.000000e+00 -0.000000e+00 0.000000e+00
      outer loop
         vertex -1.500000e+00 -1.391988e+00 2.420145e+00
         vertex -1.500000e+00 -1.310386e+00 2.347029e+00
         vertex -1.500000e+00 -5.210468e+00 0.000000e+00
      endloop
   endfacet
   facet normal -1.000000e+00 -0.000000e+00 0.000000e+00
      outer loop
         vertex -1.500000e+00 -1.310386e+00 2.347029e+00
         vertex -1.500000e+00 -1.223665e+00 2.280065e+00
         vertex -1.500000e+00 -5.210468e+00 0.000000e+00
      endloop
   endfacet
   facet normal -1.000000e+00 -0.000000e+00 0.000000e+00
      outer loop
         vertex -1.500000e+00 -1.223665e+00 2.280065e+00
         vertex -1.500000e+00 -1.132287e+00 2.219610e+00
         vertex -1.500000e+00 -5.210468e+00 0.000000e+00
      endloop
   endfacet
   facet normal -1.000000e+00 -0.000000e+00 0.000000e+00
      outer loop
         vertex -1.500000e+00 -1.132287e+00 2.219610e+00
         vertex -1.500000e+00 -1.036740e+00 2.165987e+00
         vertex -1.500000e+00 -5.210468e+00 0.000000e+00
      endloop
   endfacet
   facet normal -1.000000e+00 -0.000000e+00 0.000000e+00
      outer loop
         vertex -1.500000e+00 -1.036740e+00 2.165987e+00
         vertex -1.500000e+00 -9.375334e-01 2.119481e+00
         vertex -1.500000e+00 -5.210468e+00 0.000000e+00
      endloop
   endfacet
   facet normal -1.000000e+00 -0.000000e+00 0.000000e+00
      outer loop
         vertex -1.500000e+00 -9.375334e-01 2.119481e+00
         vertex -1.500000e+00 -8.351969e-01 2.080340e+00
         vertex -1.500000e+00 -5.210468e+00 0.000000e+00
      endloop
   endfacet
   facet normal -1.000000e+00 -0.000000e+00 0.000000e+00
      outer loop
         vertex -1.500000e+00 -8.351969e-01 2.080340e+00
         vertex -1.500000e+00 -7.302764e-01 2.048774e+00
         vertex -1.500000e+00 -5.210468e+00 0.000000e+00
      endloop
   endfacet
   facet normal -1.000000e+00 -0.000000e+00 0.000000e+00
      outer loop
         vertex -1.500000e+00 -7.302764e-01 2.048774e+00
         vertex -1.500000e+00 -6.233316e-01 2.024951e+00
         vertex -1.500000e+00 -5.210468e+00 0.000000e+00
      endloop
   endfacet
   facet normal -1.000000e+00 -0.000000e+00 0.000000e+00
      outer loop
         vertex -1.500000e+00 -6.233316e-01 2.024951e+00
         vertex -1.500000e+00 -5.149331e-01 2.008998e+00
         vertex -1.500000e+00 -5.210468e+00 0.000000e+00
      endloop
   endfacet
   facet normal -1.000000e+00 -0.000000e+00 0.000000e+00
      outer loop
         vertex -1.500000e+00 -5.149331e-01 2.008998e+00
         vertex -1.500000e+00 -4.056593e-01 2.001001e+00
         vertex -1.500000e+00 -5.210468e+00 0.000000e+00
      endloop
   endfacet
   facet normal -1.000000e+00 -0.000000e+00 0.000000e+00
      outer loop
         vertex -1.500000e+00 -4.056593e-01 2.001001e+00
         vertex -1.500000e+00 -2.960933e-01 2.001001e+00
         vertex -1.500000e+00 -5.210468e+00 0.000000e+00
      endloop
   endfacet
   facet normal -1.000000e+00 0.000000e+00 -0.000000e+00
      outer loop
         vertex -1.500000e+00 -2.960933e-01 2.001001e+00
         vertex -1.500000e+00 -1.868195e-01 2.008998e+00
         vertex -1.500000e+00 5.210468e+00 0.000000e+00
      endloop
   endfacet
   facet normal -1.000000e+00 0.000000e+00 -0.000000e+00
      outer loop
         vertex -1.500000e+00 -1.868195e-01 2.008998e+00
         vertex -1.500000e+00 -7.842103e-02 2.024951e+00
         vertex -1.500000e+00 5.210468e+00 0.000000e+00
      endloop
   endfacet
   facet normal -1.000000e+00 0.000000e+00 -0.000000e+00
      outer loop
         vertex -1.500000e+00 -7.842103e-02 2.024951e+00
         vertex -1.500000e+00 2.852377e-02 2.048774e+00
         vertex -1.500000e+00 5.210468e+00 0.000000e+00
      endloop
   endfacet
   facet normal -1.000000e+00 0.000000e+00 -0.000000e+00
      outer loop
         vertex -1.500000e+00 2.852377e-02 2.048774e+00
         vertex -1.500000e+00 1.334443e-01 2.080340e+00
         vertex -1.500000e+00 5.210468e+00 0.000000e+00
      endloop
   endfacet
   facet normal -1.000000e+00 0.000000e+00 -0.000000e+00
      outer loop
         vertex -1.500000e+00 1.334443e-01 2.080340e+00
         vertex -1.500000e+00 2.357808e-01 2.119481e+00
         vertex -1.500000e+00 5.210468e+00 0.000000e+00
      endloop
   endfacet
   facet normal -1.000000e+00 0.000000e+00 -0.000000e+00
      outer loop
         vertex -1.500000e+00 2.357808e-01 2.119481e+00
         vertex -1.500000e+00 3.349872e-01 2.165987e+00
         vertex -1.500000e+00 5.210468e+00 0.000000e+00
      endloop
   endfacet
   facet normal -1.000000e+00 0.000000e+00 -0.000000e+00
      outer loop
         vertex -1.500000e+00 3.349872e-01 2.165987e+00
         vertex -1.500000e+00 4.305342e-01 2.219610e+00
         vertex -1.500000e+00 5.210468e+00 0.000000e+00
      endloop
   endfacet
   facet normal -1.000000e+00 0.000000e+00 -0.000000e+00
      outer loop
         vertex -1.500000e+00 4.305342e-01 2.219610e+00
         vertex -1.500000e+00 5.219121e-01 2.280065e+00
         vertex -1.500000e+00 5.210468e+00 0.000000e+00
      endloop
   endfacet
   facet normal -1.000000e+00 0.000000e+00 -0.000000e+00
      outer loop
         vertex -1.500000e+00 5.219121e-01 2.280065e+00
         vertex -1.500000e+00 6.086332e-01 2.347029e+00
         vertex -1.500000e+00 5.210468e+00 0.000000e+00
      endloop
   endfacet
   facet normal -1.000000e+00 0.000000e+00 -0.000000e+00
      outer loop
         vertex -1.500000e+00 6.086332e-01 2.347029e+00
         vertex -1.500000e+00 6.902350e-01 2.420145e+00
         vertex -1.500000e+00 5.210468e+00 0.000000e+00
      endloop
   endfacet
   facet normal -1.000000e+00 0.000000e+00 -0.000000e+00
      outer loop
         vertex -1.500000e+00 6.902350e-01 2.420145e+00
         vertex -1.500000e+00 7.662820e-01 2.499022e+00
         vertex -1.500000e+00 5.210468e+00 0.000000e+00
      endloop
   endfacet
   facet normal -1.000000e+00 0.000000e+00 -0.000000e+00
      outer loop
         vertex -1.500000e+00 7.662820e-01 2.499022e+00
         vertex -1.500000e+00 8.363684e-01 2.583239e+00
         vertex -1.500000e+00 5.210468e+00 0.000000e+00
      endloop
   endfacet
   facet normal -1.000000e+00 0.000000e+00 -0.000000e+00
      outer loop
         vertex -1.500000e+00 8.363684e-01 2.583239e+00
         vertex -1.500000e+00 9.001204e-01 2.672348e+00
         vertex -1.500000e+00 5.210468e+00 0.000000e+00
      endloop
   endfacet
   facet normal -1.000000e+00 0.000000e+00 -0.000000e+00
      outer loop
         vertex -1.500000e+00 9.001204e-01 2.672348e+00
         vertex -1.500000e+00 9.571978e-01 2.765873e+00
         vertex -1.500000e+00 5.210468e+00 0.000000e+00
      endloop
   endfacet
   facet normal -1.000000e+00 0.000000e+00 -0.000000e+00
      outer loop
         vertex -1.500000e+00 9.571978e-01 2.765873e+00
         vertex -1.500000e+00 1.007296e+00 2.863315e+00
         vertex -1.500000e+00 5.210468e+00 0.000000e+00
      endloop
   endfacet
   facet normal -1.000000e+00 0.000000e+00 -0.000000e+00
      outer loop
         vertex -1.500000e+00 1.007296e+00 2.863315e+00
         vertex -1.500000e+00 1.050148e+00 2.964154e+00
         vertex -1.500000e+00 5.210468e+00 3.500000e+00
      endloop
   endfacet
   facet normal -1.000000e+00 0.000000e+00 -0.000000e+00
      outer loop
         vertex -1.500000e+00 1.050148e+00 2.964154e+00
         vertex -1.500000e+00 1.085525e+00 3.067851e+00
         vertex -1.500000e+00 5.210468e+00 3.500000e+00
      endloop
   endfacet
   facet normal -1.000000e+00 0.000000e+00 -0.000000e+00
      outer loop
         vertex -1.500000e+00 1.085525e+00 3.067851e+00
         vertex -1.500000e+00 1.113238e+00 3.173855e+00
         vertex -1.500000e+00 5.210468e+00 3.500000e+00
      endloop
   endfacet
   facet normal -1.000000e+00 0.000000e+00 -0.000000e+00
      outer loop
         vertex -1.500000e+00 1.113238e+00 3.173855e+00
         vertex -1.500000e+00 1.133139e+00 3.281598e+00
         vertex -1.500000e+00 5.210468e+00 3.500000e+00
      endloop
   endfacet
   facet normal -1.000000e+00 0.000000e+00 -0.000000e+00
      outer loop
         vertex -1.500000e+00 1.133139e+00 3.281598e+00
         vertex -1.500000e+00 1.145122e+00 3.390507e+00
         vertex -1.500000e+00 5.210468e+00 3.500000e+00
      endloop
   endfacet
   facet normal -1.000000e+00 0.000000e+00 -0.000000e+00
      outer loop
         vertex -1.500000e+00 1.145122e+00 3.390507e+00
         vertex -1.500000e+00 1.149124e+00 3.500000e+00
         vertex -1.500000e+00 5.210468e+00 3.500000e+00
      endloop
   endfacet
   facet normal -1.000000e+00 0.000000e+00 0.000000e+00
      outer loop
         vertex -1.500000e+00 5.210468e+00 3.500000e+00
         vertex -1.500000e+00 5.210468e+00 0.000000e+00
         vertex -1.500000e+00 1.007296e+00 2.863315e+00
      endloop
   endfacet
   facet normal -1.000000e+00 0.000000e+00 0.000000e+00
      outer loop
         vertex -1.500000e+00 5.210468e+00 0.000000e+00
         vertex -1.500000e+00 -5.210468e+00 0.000000e+00
         vertex -1.500000e+00 -2.960933e-01 2.001001e+00
      endloop
   endfacet
   facet normal -1.000000e+00 0.000000e+00 0.000000e+00
      outer loop
         vertex -1.500000e+00 -5.210468e+00 0.000000e+00
         vertex -1.500000e+00 -5.210468e+00 3.500000e+00
         vertex -1.500000e+00 -1.658950e+00 2.765873e+00
      endloop
   endfacet
   facet normal 0.000000e+00 -9.993329e-01 3.652131e-02
      outer loop
         vertex -1.500000e+00 1.145122e+00 3.390507e+00
         vertex 1.500000e+00 1.145122e+00 3.390507e+00
         vertex 1.500000e+00 1.149124e+00 3.500000e+00
      endloop
   endfacet
   facet normal 0.000000e+00 -9.993329e-01 3.652131e-02
      outer loop
         vertex -1.500000e+00 1.149124e+00 3.500000e+00
         vertex -1.500000e+00 1.145122e+00 3.390507e+00
         vertex 1.500000e+00 1.149124e+00 3.500000e+00
      endloop
   endfacet
   facet normal 0.000000e+00 -9.940009e-01 1.093715e-01
      outer loop
         vertex -1.500000e+00 1.133139e+00 3.281598e+00
         vertex 1.500000e+00 1.133139e+00 3.281598e+00
         vertex 1.500000e+00 1.145122e+00 3.390507e+00
      endloop
   endfacet
   facet normal 0.000000e+00 -9.940009e-01 1.093715e-01
      outer loop
         vertex -1.500000e+00 1.145122e+00 3.390507e+00
         vertex -1.500000e+00 1.133139e+00 3.281598e+00
         vertex 1.500000e+00 1.145122e+00 3.390507e+00
      endloop
   endfacet
   facet normal 0.000000e+00 -9.833656e-01 1.816372e-01
      outer loop
         vertex -1.500000e+00 1.113238e+00 3.173855e+00
         vertex 1.500000e+00 1.113238e+00 3.173855e+00
         vertex 1.500000e+00 1.133139e+00 3.281598e+00
      endloop
   endfacet
   facet normal 0.000000e+00 -9.833656e-01 1.816372e-01
      outer loop
         vertex -1.500000e+00 1.133139e+00 3.281598e+00
         vertex -1.500000e+00 1.113238e+00 3.173855e+00
         vertex 1.500000e+00 1.133139e+00 3.281598e+00
      endloop
   endfacet
   facet normal 0.000000e+00 -9.674837e-01 2.529333e-01
      outer loop
         vertex -1.500000e+00 1.085525e+00 3.067851e+00
         vertex 1.500000e+00 1.085525e+00 3.067851e+00
         vertex 1.500000e+00 1.113238e+00 3.173855e+00
      endloop
   endfacet
   facet normal 0.000000e+00 -9.674837e-01 2.529333e-01
      outer loop
         vertex -1.500000e+00 1.113238e+00 3.173855e+00
         vertex -1.500000e+00 1.085525e+00 3.067851e+00
         vertex 1.500000e+00 1.113238e+00 3.173855e+00
      endloop
   endfacet
   facet normal 0.000000e+00 -9.464401e-01 3.228796e-01
      outer loop
         vertex -1.500000e+00 1.050148e+00 2.964154e+00
         vertex 1.500000e+00 1.050148e+00 2.964154e+00
         vertex 1.500000e+00 1.085525e+00 3.067851e+00
      endloop
   endfacet
   facet normal 0.000000e+00 -9.464401e-01 3.228796e-01
      outer loop
         vertex -1.500000e+00 1.085525e+00 3.067851e+00
         vertex -1.500000e+00 1.050148e+00 2.964154e+00
         vertex 1.500000e+00 1.085525e+00 3.067851e+00
      endloop
   endfacet
   facet normal 0.000000e+00 -9.203461e-01 3.911049e-01
      outer loop
         vertex -1.500000e+00 1.007296e+00 2.863315e+00
         vertex 1.500000e+00 1.007296e+00 2.863315e+00
         vertex 1.500000e+00 1.050148e+00 2.964154e+00
      endloop
   endfacet
   facet normal 0.000000e+00 -9.203461e-01 3.911049e-01
      outer loop
         vertex -1.500000e+00 1.050148e+00 2.964154e+00
         vertex -1.500000e+00 1.007296e+00 2.863315e+00
         vertex 1.500000e+00 1.050148e+00 2.964154e+00
      endloop
   endfacet
   facet normal 0.000000e+00 -8.893421e-01 4.572425e-01
      outer loop
         vertex -1.500000e+00 9.571978e-01 2.765873e+00
         vertex 1.500000e+00 9.571978e-01 2.765873e+00
         vertex 1.500000e+00 1.007296e+00 2.863315e+00
      endloop
   endfacet
   facet normal 0.000000e+00 -8.893421e-01 4.572425e-01
      outer loop
         vertex -1.500000e+00 1.007296e+00 2.863315e+00
         vertex -1.500000e+00 9.571978e-01 2.765873e+00
         vertex 1.500000e+00 1.007296e+00 2.863315e+00
      endloop
   endfacet
   facet normal 0.000000e+00 -8.535932e-01 5.209401e-01
      outer loop
         vertex -1.500000e+00 9.001204e-01 2.672348e+00
         vertex 1.500000e+00 9.001204e-01 2.672348e+00
         vertex 1.500000e+00 9.571978e-01 2.765873e+00
      endloop
   endfacet
   facet normal 0.000000e+00 -8.535932e-01 5.209401e-01
      outer loop
         vertex -1.500000e+00 9.571978e-01 2.765873e+00
         vertex -1.500000e+00 9.001204e-01 2.672348e+00
         vertex 1.500000e+00 9.571978e-01 2.765873e+00
      endloop
   endfacet
   facet normal 0.000000e+00 -8.132897e-01 5.818590e-01
      outer loop
         vertex -1.500000e+00 8.363684e-01 2.583239e+00
         vertex 1.500000e+00 8.363684e-01 2.583239e+00
         vertex 1.500000e+00 9.001204e-01 2.672348e+00
      endloop
   endfacet
   facet normal 0.000000e+00 -8.132897e-01 5.818590e-01
      outer loop
         vertex -1.500000e+00 9.001204e-01 2.672348e+00
         vertex -1.500000e+00 8.363684e-01 2.583239e+00
         vertex 1.500000e+00 9.001204e-01 2.672348e+00
      endloop
   endfacet
   facet normal 0.000000e+00 -7.686467e-01 6.396736e-01
      outer loop
         vertex -1.500000e+00 7.662820e-01 2.499022e+00
         vertex 1.500000e+00 7.662820e-01 2.499022e+00
         vertex 1.500000e+00 8.363684e-01 2.583239e+00
      endloop
   endfacet
   facet normal 0.000000e+00 -7.686467e-01 6.396736e-01
      outer loop
         vertex -1.500000e+00 8.363684e-01 2.583239e+00
         vertex -1.500000e+00 7.662820e-01 2.499022e+00
         vertex 1.500000e+00 8.363684e-01 2.583239e+00
      endloop
   endfacet
   facet normal 0.000000e+00 -7.199036e-01 6.940741e-01
      outer loop
         vertex -1.500000e+00 6.902350e-01 2.420145e+00
         vertex 1.500000e+00 6.902350e-01 2.420145e+00
         vertex 1.500000e+00 7.662820e-01 2.499022e+00
      endloop
   endfacet
   facet normal 0.000000e+00 -7.199036e-01 6.940741e-01
      outer loop
         vertex -1.500000e+00 7.662820e-01 2.499022e+00
         vertex -1.500000e+00 6.902350e-01 2.420145e+00
         vertex 1.500000e+00 7.662820e-01 2.499022e+00
      endloop
   endfacet
   facet normal 0.000000e+00 -6.673191e-01 7.447719e-01
      outer loop
         vertex -1.500000e+00 6.086332e-01 2.347029e+00
         vertex 1.500000e+00 6.086332e-01 2.347029e+00
         vertex 1.500000e+00 6.902350e-01 2.420145e+00
      endloop
   endfacet
   facet normal 0.000000e+00 -6.673191e-01 7.447719e-01
      outer loop
         vertex -1.500000e+00 6.902350e-01 2.420145e+00
         vertex -1.500000e+00 6.086332e-01 2.347029e+00
         vertex 1.500000e+00 6.902350e-01 2.420145e+00
      endloop
   endfacet
   facet normal 0.000000e+00 -6.111739e-01 7.914963e-01
      outer loop
         vertex -1.500000e+00 5.219121e-01 2.280065e+00
         vertex 1.500000e+00 5.219121e-01 2.280065e+00
         vertex 1.500000e+00 6.086332e-01 2.347029e+00
      endloop
   endfacet
   facet normal 0.000000e+00 -6.111739e-01 7.914963e-01
      outer loop
         vertex -1.500000e+00 6.086332e-01 2.347029e+00
         vertex -1.500000e+00 5.219121e-01 2.280065e+00
         vertex 1.500000e+00 6.086332e-01 2.347029e+00
      endloop
   endfacet
   facet normal 0.000000e+00 -5.517680e-01 8.339976e-01
      outer loop
         vertex -1.500000e+00 4.305342e-01 2.219610e+00
         vertex 1.500000e+00 4.305342e-01 2.219610e+00
         vertex 1.500000e+00 5.219121e-01 2.280065e+00
      endloop
   endfacet
   facet normal 0.000000e+00 -5.517680e-01 8.339976e-01
      outer loop
         vertex -1.500000e+00 5.219121e-01 2.280065e+00
         vertex -1.500000e+00 4.305342e-01 2.219610e+00
         vertex 1.500000e+00 5.219121e-01 2.280065e+00
      endloop
   endfacet
   facet normal 0.000000e+00 -4.894168e-01 8.720500e-01
      outer loop
         vertex -1.500000e+00 3.349872e-01 2.165987e+00
         vertex 1.500000e+00 3.349872e-01 2.165987e+00
         vertex 1.500000e+00 4.305342e-01 2.219610e+00
      endloop
   endfacet
   facet normal 0.000000e+00 -4.894168e-01 8.720500e-01
      outer loop
         vertex -1.500000e+00 4.305342e-01 2.219610e+00
         vertex -1.500000e+00 3.349872e-01 2.165987e+00
         vertex 1.500000e+00 4.305342e-01 2.219610e+00
      endloop
   endfacet
   facet normal 0.000000e+00 -4.244575e-01 9.054479e-01
      outer loop
         vertex -1.500000e+00 2.357808e-01 2.119481e+00
         vertex 1.500000e+00 2.357808e-01 2.119481e+00
         vertex 1.500000e+00 3.349872e-01 2.165987e+00
      endloop
   endfacet
   facet normal 0.000000e+00 -4.244575e-01 9.054479e-01
      outer loop
         vertex -1.500000e+00 3.349872e-01 2.165987e+00
         vertex -1.500000e+00 2.357808e-01 2.119481e+00
         vertex 1.500000e+00 3.349872e-01 2.165987e+00
      endloop
   endfacet
   facet normal 0.000000e+00 -3.572296e-01 9.340166e-01
      outer loop
         vertex -1.500000e+00 1.334443e-01 2.080340e+00
         vertex 1.500000e+00 1.334443e-01 2.080340e+00
         vertex 1.500000e+00 2.357808e-01 2.119481e+00
      endloop
   endfacet
   facet normal 0.000000e+00 -3.572296e-01 9.340166e-01
      outer loop
         vertex -1.500000e+00 2.357808e-01 2.119481e+00
         vertex -1.500000e+00 1.334443e-01 2.080340e+00
         vertex 1.500000e+00 2.357808e-01 2.119481e+00
      endloop
   endfacet
   facet normal 0.000000e+00 -2.880992e-01 9.576006e-01
      outer loop
         vertex -1.500000e+00 2.852377e-02 2.048774e+00
         vertex 1.500000e+00 2.852377e-02 2.048774e+00
         vertex 1.500000e+00 1.334443e-01 2.080340e+00
      endloop
   endfacet
   facet normal 0.000000e+00 -2.880992e-01 9.576006e-01
      outer loop
         vertex -1.500000e+00 1.334443e-01 2.080340e+00
         vertex -1.500000e+00 2.852377e-02 2.048774e+00
         vertex 1.500000e+00 1.334443e-01 2.080340e+00
      endloop
   endfacet
   facet normal 0.000000e+00 -2.174306e-01 9.760758e-01
      outer loop
         vertex -1.500000e+00 -7.842103e-02 2.024951e+00
         vertex 1.500000e+00 -7.842103e-02 2.024951e+00
         vertex 1.500000e+00 2.852377e-02 2.048774e+00
      endloop
   endfacet
   facet normal 0.000000e+00 -2.174306e-01 9.760758e-01
      outer loop
         vertex -1.500000e+00 2.852377e-02 2.048774e+00
         vertex -1.500000e+00 -7.842103e-02 2.024951e+00
         vertex 1.500000e+00 2.852377e-02 2.048774e+00
      endloop
   endfacet
   facet normal 0.000000e+00 -1.456022e-01 9.893432e-01
      outer loop
         vertex -1.500000e+00 -1.868195e-01 2.008998e+00
         vertex 1.500000e+00 -1.868195e-01 2.008998e+00
         vertex 1.500000e+00 -7.842103e-02 2.024951e+00
      endloop
   endfacet
   facet normal 0.000000e+00 -1.456022e-01 9.893432e-01
      outer loop
         vertex -1.500000e+00 -7.842103e-02 2.024951e+00
         vertex -1.500000e+00 -1.868195e-01 2.008998e+00
         vertex 1.500000e+00 -7.842103e-02 2.024951e+00
      endloop
   endfacet
   facet normal 0.000000e+00 -7.299478e-02 9.973323e-01
      outer loop
         vertex -1.500000e+00 -2.960933e-01 2.001001e+00
         vertex 1.500000e+00 -2.960933e-01 2.001001e+00
         vertex 1.500000e+00 -1.868195e-01 2.008998e+00
      endloop
   endfacet
   facet normal 0.000000e+00 -7.299478e-02 9.973323e-01
      outer loop
         vertex -1.500000e+00 -1.868195e-01 2.008998e+00
         vertex -1.500000e+00 -2.960933e-01 2.001001e+00
         vertex 1.500000e+00 -1.868195e-01 2.008998e+00
      endloop
   endfacet
   facet normal 0.000000e+00 -0.000000e+00 1.000000e+00
      outer loop
         vertex -1.500000e+00 -4.056593e-01 2.001001e+00
         vertex 1.500000e+00 -4.056593e-01 2.001001e+00
         vertex 1.500000e+00 -2.960933e-01 2.001001e+00
      endloop
   endfacet
   facet normal 0.000000e+00 0.000000e+00 1.000000e+00
      outer loop
         vertex -1.500000e+00 -2.960933e-01 2.001001e+00
         vertex -1.500000e+00 -4.056593e-01 2.001001e+00
         vertex 1.500000e+00 -2.960933e-01 2.001001e+00
      endloop
   endfacet
   facet normal 0.000000e+00 7.299479e-02 9.973323e-01
      outer loop
         vertex -1.500000e+00 -5.149331e-01 2.008998e+00
         vertex 1.500000e+00 -5.149331e-01 2.008998e+00
         vertex 1.500000e+00 -4.056593e-01 2.001001e+00
      endloop
   endfacet
   facet normal 0.000000e+00 7.299479e-02 9.973323e-01
      outer loop
         vertex -1.500000e+00 -4.056593e-01 2.001001e+00
         vertex -1.500000e+00 -5.149331e-01 2.008998e+00
         vertex 1.500000e+00 -4.056593e-01 2.001001e+00
      endloop
   endfacet
   facet normal 0.000000e+00 1.456022e-01 9.893432e-01
      outer loop
         vertex -1.500000e+00 -6.233316e-01 2.024951e+00
         vertex 1.500000e+00 -6.233316e-01 2.024951e+00
         vertex 1.500000e+00 -5.149331e-01 2.008998e+00
      endloop
   endfacet
   facet normal 0.000000e+00 1.456022e-01 9.893432e-01
      outer loop
         vertex -1.500000e+00 -5.149331e-01 2.008998e+00
         vertex -1.500000e+00 -6.233316e-01 2.024951e+00
         vertex 1.500000e+00 -5.149331e-01 2.008998e+00
      endloop
   endfacet
   facet normal 0.000000e+00 2.174306e-01 9.760758e-01
      outer loop
         vertex -1.500000e+00 -7.302764e-01 2.048774e+00
         vertex 1.500000e+00 -7.302764e-01 2.048774e+00
         vertex 1.500000e+00 -6.233316e-01 2.024951e+00
      endloop
   endfacet
   facet normal 0.000000e+00 2.174306e-01 9.760758e-01
      outer loop
         vertex -1.500000e+00 -6.233316e-01 2.024951e+00
         vertex -1.500000e+00 -7.302764e-01 2.048774e+00
         vertex 1.500000e+00 -6.233316e-01 2.024951e+00
      endloop
   endfacet
   facet normal 0.000000e+00 2.880993e-01 9.576005e-01
      outer loop
         vertex -1.500000e+00 -8.351969e-01 2.080340e+00
         vertex 1.500000e+00 -8.351969e-01 2.080340e+00
         vertex 1.500000e+00 -7.302764e-01 2.048774e+00
      endloop
   endfacet
   facet normal 0.000000e+00 2.880993e-01 9.576005e-01
      outer loop
         vertex -1.500000e+00 -7.302764e-01 2.048774e+00
         vertex -1.500000e+00 -8.351969e-01 2.080340e+00
         vertex 1.500000e+00 -7.302764e-01 2.048774e+00
      endloop
   endfacet
   facet normal 0.000000e+00 3.572295e-01 9.340167e-01
      outer loop
         vertex -1.500000e+00 -9.375334e-01 2.119481e+00
         vertex 1.500000e+00 -9.375334e-01 2.119481e+00
         vertex 1.500000e+00 -8.351969e-01 2.080340e+00
      endloop
   endfacet
   facet normal 0.000000e+00 3.572295e-01 9.340167e-01
      outer loop
         vertex -1.500000e+00 -8.351969e-01 2.080340e+00
         vertex -1.500000e+00 -9.375334e-01 2.119481e+00
         vertex 1.500000e+00 -8.351969e-01 2.080340e+00
      endloop
   endfacet
   facet normal 0.000000e+00 4.244576e-01 9.054478e-01
      outer loop
         vertex -1.500000e+00 -1.036740e+00 2.165987e+00
         vertex 1.500000e+00 -1.036740e+00 2.165987e+00
         vertex 1.500000e+00 -9.375334e-01 2.119481e+00
      endloop
   endfacet
   facet normal 0.000000e+00 4.244576e-01 9.054478e-01
      outer loop
         vertex -1.500000e+00 -9.375334e-01 2.119481e+00
         vertex -1.500000e+00 -1.036740e+00 2.165987e+00
         vertex 1.500000e+00 -9.375334e-01 2.119481e+00
      endloop
   endfacet
   facet normal 0.000000e+00 4.894166e-01 8.720501e-01
      outer loop
         vertex -1.500000e+00 -1.132287e+00 2.219610e+00
         vertex 1.500000e+00 -1.132287e+00 2.219610e+00
         vertex 1.500000e+00 -1.036740e+00 2.165987e+00
      endloop
   endfacet
   facet normal 0.000000e+00 4.894166e-01 8.720501e-01
      outer loop
         vertex -1.500000e+00 -1.036740e+00 2.165987e+00
         vertex -1.500000e+00 -1.132287e+00 2.219610e+00
         vertex 1.500000e+00 -1.036740e+00 2.165987e+00
      endloop
   endfacet
   facet normal 0.000000e+00 5.517682e-01 8.339975e-01
      outer loop
         vertex -1.500000e+00 -1.223665e+00 2.280065e+00
         vertex 1.500000e+00 -1.223665e+00 2.280065e+00
         vertex 1.500000e+00 -1.132287e+00 2.219610e+00
      endloop
   endfacet
   facet normal 0.000000e+00 5.517682e-01 8.339975e-01
      outer loop
         vertex -1.500000e+00 -1.132287e+00 2.219610e+00
         vertex -1.500000e+00 -1.223665e+00 2.280065e+00
         vertex 1.500000e+00 -1.132287e+00 2.219610e+00
      endloop
   endfacet
   facet normal 0.000000e+00 6.111742e-01 7.914961e-01
      outer loop
         vertex -1.500000e+00 -1.310386e+00 2.347029e+00
         vertex 1.500000e+00 -1.310386e+00 2.347029e+00
         vertex 1.500000e+00 -1.223665e+00 2.280065e+00
      endloop
   endfacet
   facet normal 0.000000e+00 6.111742e-01 7.914961e-01
      outer loop
         vertex -1.500000e+00 -1.223665e+00 2.280065e+00
         vertex -1.500000e+00 -1.310386e+00 2.347029e+00
         vertex 1.500000e+00 -1.223665e+00 2.280065e+00
      endloop
   endfacet
   facet normal 0.000000e+00 6.673188e-01 7.447722e-01
      outer loop
         vertex -1.500000e+00 -1.391988e+00 2.420145e+00
         vertex 1.500000e+00 -1.391988e+00 2.420145e+00
         vertex 1.500000e+00 -1.310386e+00 2.347029e+00
      endloop
   endfacet
   facet normal 0.000000e+00 6.673188e-01 7.447722e-01
      outer loop
         vertex -1.500000e+00 -1.310386e+00 2.347029e+00
         vertex -1.500000e+00 -1.391988e+00 2.420145e+00
         vertex 1.500000e+00 -1.310386e+00 2.347029e+00
      endloop
   endfacet
   facet normal 0.000000e+00 7.199036e-01 6.940741e-01
      outer loop
         vertex -1.500000e+00 -1.468035e+00 2.499022e+00
         vertex 1.500000e+00 -1.468035e+00 2.499022e+00
         vertex 1.500000e+00 -1.391988e+00 2.420145e+00
      endloop
   endfacet
   facet normal 0.000000e+00 7.199036e-01 6.940741e-01
      outer loop
         vertex -1.500000e+00 -1.391988e+00 2.420145e+00
         vertex -1.500000e+00 -1.468035e+00 2.499022e+00
         vertex 1.500000e+00 -1.391988e+00 2.420145e+00
      endloop
   endfacet
   facet normal 0.000000e+00 7.686467e-01 6.396736e-01
      outer loop
         vertex -1.500000e+00 -1.538121e+00 2.583239e+00
         vertex 1.500000e+00 -1.538121e+00 2.583239e+00
         vertex 1.500000e+00 -1.468035e+00 2.499022e+00
      endloop
   endfacet
   facet normal 0.000000e+00 7.686467e-01 6.396736e-01
      outer loop
         vertex -1.500000e+00 -1.468035e+00 2.499022e+00
         vertex -1.500000e+00 -1.538121e+00 2.583239e+00
         vertex 1.500000e+00 -1.468035e+00 2.499022e+00
      endloop
   endfacet
   facet normal 0.000000e+00 8.132899e-01 5.818586e-01
      outer loop
         vertex -1.500000e+00 -1.601873e+00 2.672348e+00
         vertex 1.500000e+00 -1.601873e+00 2.672348e+00
         vertex 1.500000e+00 -1.538121e+00 2.583239e+00
      endloop
   endfacet
   facet normal 0.000000e+00 8.132899e-01 5.818586e-01
      outer loop
         vertex -1.500000e+00 -1.538121e+00 2.583239e+00
         vertex -1.500000e+00 -1.601873e+00 2.672348e+00
         vertex 1.500000e+00 -1.538121e+00 2.583239e+00
      endloop
   endfacet
   facet normal 0.000000e+00 8.535932e-01 5.209401e-01
      outer loop
         vertex -1.500000e+00 -1.658950e+00 2.765873e+00
         vertex 1.500000e+00 -1.658950e+00 2.765873e+00
         vertex 1.500000e+00 -1.601873e+00 2.672348e+00
      endloop
   endfacet
   facet normal 0.000000e+00 8.535932e-01 5.209401e-01
      outer loop
         vertex -1.500000e+00 -1.601873e+00 2.672348e+00
         vertex -1.500000e+00 -1.658950e+00 2.765873e+00
         vertex 1.500000e+00 -1.601873e+00 2.672348e+00
      endloop
   endfacet
   facet normal 0.000000e+00 8.893418e-01 4.572429e-01
      outer loop
         vertex -1.500000e+00 -1.709049e+00 2.863315e+00
         vertex 1.500000e+00 -1.709049e+00 2.863315e+00
         vertex 1.500000e+00 -1.658950e+00 2.765873e+00
      endloop
   endfacet
   facet normal 0.000000e+00 8.893418e-01 4.572429e-01
      outer loop
         vertex -1.500000e+00 -1.658950e+00 2.765873e+00
         vertex -1.500000e+00 -1.709049e+00 2.863315e+00
         vertex 1.500000e+00 -1.658950e+00 2.765873e+00
      endloop
   endfacet
   facet normal 0.000000e+00 9.203461e-01 3.911049e-01
      outer loop
         vertex -1.500000e+00 -1.751901e+00 2.964154e+00
         vertex 1.500000e+00 -1.751901e+00 2.964154e+00
         vertex 1.500000e+00 -1.709049e+00 2.863315e+00
      endloop
   endfacet
   facet normal 0.000000e+00 9.203461e-01 3.911049e-01
      outer loop
         vertex -1.500000e+00 -1.709049e+00 2.863315e+00
         vertex -1.500000e+00 -1.751901e+00 2.964154e+00
         vertex 1.500000e+00 -1.709049e+00 2.863315e+00
      endloop
   endfacet
   facet normal 0.000000e+00 9.464401e-01 3.228796e-01
      outer loop
         vertex -1.500000e+00 -1.787277e+00 3.067851e+00
         vertex 1.500000e+00 -1.787277e+00 3.067851e+00
         vertex 1.500000e+00 -1.751901e+00 2.964154e+00
      endloop
   endfacet
   facet normal 0.000000e+00 9.464401e-01 3.228796e-01
      outer loop
         vertex -1.500000e+00 -1.751901e+00 2.964154e+00
         vertex -1.500000e+00 -1.787277e+00 3.067851e+00
         vertex 1.500000e+00 -1.751901e+00 2.964154e+00
      endloop
   endfacet
   facet normal 0.000000e+00 9.674837e-01 2.529333e-01
      outer loop
         vertex -1.500000e+00 -1.814990e+00 3.173855e+00
         vertex 1.500000e+00 -1.814990e+00 3.173855e+00
         vertex 1.500000e+00 -1.787277e+00 3.067851e+00
      endloop
   endfacet
   facet normal 0.000000e+00 9.674837e-01 2.529333e-01
      outer loop
         vertex -1.500000e+00 -1.787277e+00 3.067851e+00
         vertex -1.500000e+00 -1.814990e+00 3.173855e+00
         vertex 1.500000e+00 -1.787277e+00 3.067851e+00
      endloop
   endfacet
   facet normal 0.000000e+00 9.833658e-01 1.816362e-01
      outer loop
         vertex -1.500000e+00 -1.834891e+00 3.281598e+00
         vertex 1.500000e+00 -1.834891e+00 3.281598e+00
         vertex 1.500000e+00 -1.814990e+00 3.173855e+00
      endloop
   endfacet
   facet normal 0.000000e+00 9.833658e-01 1.816362e-01
      outer loop
         vertex -1.500000e+00 -1.814990e+00 3.173855e+00
         vertex -1.500000e+00 -1.834891e+00 3.281598e+00
         vertex 1.500000e+00 -1.814990e+00 3.173855e+00
      endloop
   endfacet
   facet normal 0.000000e+00 9.940009e-01 1.093715e-01
      outer loop
         vertex -1.500000e+00 -1.846875e+00 3.390507e+00
         vertex 1.500000e+00 -1.846875e+00 3.390507e+00
         vertex 1.500000e+00 -1.834891e+00 3.281598e+00
      endloop
   endfacet
   facet normal 0.000000e+00 9.940009e-01 1.093715e-01
      outer loop
         vertex -1.500000e+00 -1.834891e+00 3.281598e+00
         vertex -1.500000e+00 -1.846875e+00 3.390507e+00
         vertex 1.500000e+00 -1.834891e+00 3.281598e+00
      endloop
   endfacet
   facet normal 0.000000e+00 9.993328e-01 3.652240e-02
      outer loop
         vertex -1.500000e+00 -1.850876e+00 3.500000e+00
         vertex 1.500000e+00 -1.850876e+00 3.500000e+00
         vertex 1.500000e+00 -1.846875e+00 3.390507e+00
      endloop
   endfacet
   facet normal 0.000000e+00 9.993328e-01 3.652240e-02
      outer loop
         vertex -1.500000e+00 -1.846875e+00 3.390507e+00
         vertex -1.500000e+00 -1.850876e+00 3.500000e+00
         vertex 1.500000e+00 -1.846875e+00 3.390507e+00
      endloop
   endfacet
   facet normal 7.071068e-01 -7.071067e-01 0.000000e+00
      outer loop
         vertex -1.500000e+00 -5.210468e+00 3.500000e+00
         vertex -1.500000e+00 -5.210468e+00 0.000000e+00
         vertex -1.466526e-14 -3.710468e+00 0.000000e+00
      endloop
   endfacet
   facet normal 7.071068e-01 -7.071067e-01 0.000000e+00
      outer loop
         vertex -1.466526e-14 -3.710468e+00 0.000000e+00
         vertex -1.466526e-14 -3.710468e+00 3.500000e+00
         vertex -1.500000e+00 -5.210468e+00 3.500000e+00
      endloop
   endfacet
   facet normal -7.071068e-01 -7.071067e-01 0.000000e+00
      outer loop
         vertex -1.466526e-14 -3.710468e+00 3.500000e+00
         vertex -1.466526e-14 -3.710468e+00 0.000000e+00
         vertex 1.500000e+00 -5.210468e+00 0.000000e+00
      endloop
   endfacet
   facet normal -7.071068e-01 -7.071067e-01 -0.000000e+00
      outer loop
         vertex 1.500000e+00 -5.210468e+00 0.000000e+00
         vertex 1.500000e+00 -5.210468e+00 3.500000e+00
         vertex -1.466526e-14 -3.710468e+00 3.500000e+00
      endloop
   endfacet
   facet normal -7.071068e-01 7.071067e-01 0.000000e+00
      outer loop
         vertex 1.500000e+00 5.210468e+00 3.500000e+00
         vertex 1.500000e+00 5.210468e+00 0.000000e+00
         vertex 4.544013e-16 3.710468e+00 0.000000e+00
      endloop
   endfacet
   facet normal -7.071068e-01 7.071067e-01 0.000000e+00
      outer loop
         vertex 4.544013e-16 3.710468e+00 0.000000e+00
         vertex 4.544013e-16 3.710468e+00 3.500000e+00
         vertex 1.500000e+00 5.210468e+00 3.500000e+00
      endloop
   endfacet
   facet normal 7.071068e-01 7.071067e-01 -0.000000e+00
      outer loop
         vertex 4.544013e-16 3.710468e+00 3.500000e+00
         vertex 4.544013e-16 3.710468e+00 0.000000e+00
         vertex -1.500000e+00 5.210468e+00 0.000000e+00
      endloop
   endfacet
   facet normal 7.071068e-01 7.071067e-01 0.000000e+00
      outer loop
         vertex -1.500000e+00 5.210468e+00 0.000000e+00
         vertex -1.500000e+00 5.210468e+00 3.500000e+00
         vertex 4.544013e-16 3.710468e+00 3.500000e+00
      endloop
   endfacet
   facet normal 0.000000e+00 0.000000e+00 -1.000000e+00
      outer loop
         vertex -1.466526e-14 -3.710468e+00 0.000000e+00
         vertex -1.500000e+00 -5.210468e+00 0.000000e+00
         vertex -1.500000e+00 5.210468e+00 0.000000e+00
      endloop
   endfacet
   facet normal 0.000000e+00 0.000000e+00 -1.000000e+00
      outer loop
         vertex 1.500000e+00 5.210468e+00 0.000000e+00
         vertex 1.500000e+00 -5.210468e+00 0.000000e+00
         vertex -1.466526e-14 -3.710468e+00 0.000000e+00
      endloop
   endfacet
   facet normal 0.000000e+00 -0.000000e+00 -1.000000e+00
      outer loop
         vertex -1.466526e-14 -3.710468e+00 0.000000e+00
         vertex 4.544013e-16 3.710468e+00 0.000000e+00
         vertex 1.500000e+00 5.210468e+00 0.000000e+00
      endloop
   endfacet
   facet normal 0.000000e+00 0.000000e+00 -1.000000e+00
      outer loop
         vertex -1.466526e-14 -3.710468e+00 0.000000e+00
         vertex -1.500000e+00 5.210468e+00 0.000000e+00
         vertex 4.544013e-16 3.710468e+00 0.000000e+00
      endloop
   endfacet
endsolid
