solid 
   facet normal 0.000000e+00 0.000000e+00 -1.000000e+00
      outer loop
         vertex -1.466526e-14 -3.710468e+00 0.000000e+00
         vertex -1.500000e+00 -5.210468e+00 0.000000e+00
         vertex -1.500000e+00 -1.850876e+00 0.000000e+00
      endloop
   endfacet
   facet normal 0.000000e+00 0.000000e+00 -1.000000e+00
      outer loop
         vertex 1.500000e+00 -1.850876e+00 0.000000e+00
         vertex 1.500000e+00 -5.210468e+00 0.000000e+00
         vertex -1.466526e-14 -3.710468e+00 0.000000e+00
      endloop
   endfacet
   facet normal 0.000000e+00 0.000000e+00 -1.000000e+00
      outer loop
         vertex -1.466526e-14 -3.710468e+00 0.000000e+00
         vertex -1.500000e+00 -1.850876e+00 0.000000e+00
         vertex 1.500000e+00 -1.850876e+00 0.000000e+00
      endloop
   endfacet
   facet normal 0.000000e+00 -0.000000e+00 -1.000000e+00
      outer loop
         vertex 4.544013e-16 3.710468e+00 0.000000e+00
         vertex 1.500000e+00 5.210468e+00 0.000000e+00
         vertex 1.500000e+00 1.149124e+00 0.000000e+00
      endloop
   endfacet
   facet normal 0.000000e+00 0.000000e+00 -1.000000e+00
      outer loop
         vertex -1.500000e+00 1.149124e+00 0.000000e+00
         vertex -1.500000e+00 5.210468e+00 0.000000e+00
         vertex 4.544013e-16 3.710468e+00 0.000000e+00
      endloop
   endfacet
   facet normal 0.000000e+00 0.000000e+00 -1.000000e+00
      outer loop
         vertex 4.544013e-16 3.710468e+00 0.000000e+00
         vertex 1.500000e+00 1.149124e+00 0.000000e+00
         vertex -1.500000e+00 1.149124e+00 0.000000e+00
      endloop
   endfacet
   facet normal 1.000000e+00 0.000000e+00 -0.000000e+00
      outer loop
         vertex 1.500000e+00 -5.210468e+00 0.000000e+00
         vertex 1.500000e+00 -1.850876e+00 0.000000e+00
         vertex 1.500000e+00 -1.846875e+00 1.094930e-01
      endloop
   endfacet
   facet normal 1.000000e+00 0.000000e+00 0.000000e+00
      outer loop
         vertex 1.500000e+00 -1.846875e+00 1.094930e-01
         vertex 1.500000e+00 -1.834891e+00 2.184017e-01
         vertex 1.500000e+00 -5.210468e+00 0.000000e+00
      endloop
   endfacet
   facet normal 1.000000e+00 0.000000e+00 0.000000e+00
      outer loop
         vertex 1.500000e+00 -1.834891e+00 2.184017e-01
         vertex 1.500000e+00 -1.814990e+00 3.261453e-01
         vertex 1.500000e+00 -5.210468e+00 0.000000e+00
      endloop
   endfacet
   facet normal 1.000000e+00 0.000000e+00 0.000000e+00
      outer loop
         vertex 1.500000e+00 -1.814990e+00 3.261453e-01
         vertex 1.500000e+00 -1.787277e+00 4.321486e-01
         vertex 1.500000e+00 -5.210468e+00 0.000000e+00
      endloop
   endfacet
   facet normal 1.000000e+00 0.000000e+00 0.000000e+00
      outer loop
         vertex 1.500000e+00 -1.787277e+00 4.321486e-01
         vertex 1.500000e+00 -1.751900e+00 5.358464e-01
         vertex 1.500000e+00 -5.210468e+00 0.000000e+00
      endloop
   endfacet
   facet normal 1.000000e+00 0.000000e+00 0.000000e+00
      outer loop
         vertex 1.500000e+00 -1.751900e+00 5.358464e-01
         vertex 1.500000e+00 -1.709049e+00 6.366851e-01
         vertex 1.500000e+00 -5.210468e+00 0.000000e+00
      endloop
   endfacet
   facet normal 1.000000e+00 0.000000e+00 0.000000e+00
      outer loop
         vertex 1.500000e+00 -1.709049e+00 6.366851e-01
         vertex 1.500000e+00 -1.658950e+00 7.341267e-01
         vertex 1.500000e+00 -5.210468e+00 0.000000e+00
      endloop
   endfacet
   facet normal 1.000000e+00 0.000000e+00 0.000000e+00
      outer loop
         vertex 1.500000e+00 -1.658950e+00 7.341267e-01
         vertex 1.500000e+00 -1.601873e+00 8.276516e-01
         vertex 1.500000e+00 -5.210468e+00 0.000000e+00
      endloop
   endfacet
   facet normal 1.000000e+00 0.000000e+00 0.000000e+00
      outer loop
         vertex 1.500000e+00 -1.601873e+00 8.276516e-01
         vertex 1.500000e+00 -1.538121e+00 9.167606e-01
         vertex 1.500000e+00 -5.210468e+00 0.000000e+00
      endloop
   endfacet
   facet normal 1.000000e+00 0.000000e+00 0.000000e+00
      outer loop
         vertex 1.500000e+00 -1.538121e+00 9.167606e-01
         vertex 1.500000e+00 -1.468035e+00 1.000978e+00
         vertex 1.500000e+00 -5.210468e+00 0.000000e+00
      endloop
   endfacet
   facet normal 1.000000e+00 0.000000e+00 0.000000e+00
      outer loop
         vertex 1.500000e+00 -1.468035e+00 1.000978e+00
         vertex 1.500000e+00 -1.391988e+00 1.079855e+00
         vertex 1.500000e+00 -5.210468e+00 0.000000e+00
      endloop
   endfacet
   facet normal 1.000000e+00 0.000000e+00 0.000000e+00
      outer loop
         vertex 1.500000e+00 -1.391988e+00 1.079855e+00
         vertex 1.500000e+00 -1.310386e+00 1.152971e+00
         vertex 1.500000e+00 -5.210468e+00 0.000000e+00
      endloop
   endfacet
   facet normal 1.000000e+00 0.000000e+00 0.000000e+00
      outer loop
         vertex 1.500000e+00 -1.310386e+00 1.152971e+00
         vertex 1.500000e+00 -1.223665e+00 1.219935e+00
         vertex 1.500000e+00 -5.210468e+00 9.532672e+00
      endloop
   endfacet
   facet normal 1.000000e+00 0.000000e+00 0.000000e+00
      outer loop
         vertex 1.500000e+00 -1.223665e+00 1.219935e+00
         vertex 1.500000e+00 -1.132287e+00 1.280390e+00
         vertex 1.500000e+00 -5.210468e+00 9.532672e+00
      endloop
   endfacet
   facet normal 1.000000e+00 0.000000e+00 0.000000e+00
      outer loop
         vertex 1.500000e+00 -1.132287e+00 1.280390e+00
         vertex 1.500000e+00 -1.036740e+00 1.334013e+00
         vertex 1.500000e+00 -5.210468e+00 9.532672e+00
      endloop
   endfacet
   facet normal 1.000000e+00 0.000000e+00 0.000000e+00
      outer loop
         vertex 1.500000e+00 -1.036740e+00 1.334013e+00
         vertex 1.500000e+00 -9.375334e-01 1.380519e+00
         vertex 1.500000e+00 -5.210468e+00 9.532672e+00
      endloop
   endfacet
   facet normal 1.000000e+00 0.000000e+00 0.000000e+00
      outer loop
         vertex 1.500000e+00 -9.375334e-01 1.380519e+00
         vertex 1.500000e+00 -8.351969e-01 1.419660e+00
         vertex 1.500000e+00 -5.210468e+00 9.532672e+00
      endloop
   endfacet
   facet normal 1.000000e+00 0.000000e+00 0.000000e+00
      outer loop
         vertex 1.500000e+00 -8.351969e-01 1.419660e+00
         vertex 1.500000e+00 -7.302764e-01 1.451226e+00
         vertex 1.500000e+00 -5.210468e+00 9.532672e+00
      endloop
   endfacet
   facet normal 1.000000e+00 0.000000e+00 0.000000e+00
      outer loop
         vertex 1.500000e+00 -7.302764e-01 1.451226e+00
         vertex 1.500000e+00 -6.233316e-01 1.475049e+00
         vertex 1.500000e+00 -5.210468e+00 9.532672e+00
      endloop
   endfacet
   facet normal 1.000000e+00 0.000000e+00 0.000000e+00
      outer loop
         vertex 1.500000e+00 -6.233316e-01 1.475049e+00
         vertex 1.500000e+00 -5.149331e-01 1.491001e+00
         vertex 1.500000e+00 -5.210468e+00 9.532672e+00
      endloop
   endfacet
   facet normal 1.000000e+00 0.000000e+00 0.000000e+00
      outer loop
         vertex 1.500000e+00 -5.149331e-01 1.491001e+00
         vertex 1.500000e+00 -4.056593e-01 1.498999e+00
         vertex 1.500000e+00 -5.210468e+00 9.532672e+00
      endloop
   endfacet
   facet normal 1.000000e+00 0.000000e+00 0.000000e+00
      outer loop
         vertex 1.500000e+00 -4.056593e-01 1.498999e+00
         vertex 1.500000e+00 -2.960933e-01 1.498999e+00
         vertex 1.500000e+00 -5.210468e+00 9.532672e+00
      endloop
   endfacet
   facet normal 1.000000e+00 0.000000e+00 -0.000000e+00
      outer loop
         vertex 1.500000e+00 -2.960933e-01 1.498999e+00
         vertex 1.500000e+00 -1.868195e-01 1.491001e+00
         vertex 1.500000e+00 5.210468e+00 9.532672e+00
      endloop
   endfacet
   facet normal 1.000000e+00 0.000000e+00 -0.000000e+00
      outer loop
         vertex 1.500000e+00 -1.868195e-01 1.491001e+00
         vertex 1.500000e+00 -7.842104e-02 1.475049e+00
         vertex 1.500000e+00 5.210468e+00 9.532672e+00
      endloop
   endfacet
   facet normal 1.000000e+00 0.000000e+00 -0.000000e+00
      outer loop
         vertex 1.500000e+00 -7.842104e-02 1.475049e+00
         vertex 1.500000e+00 2.852376e-02 1.451226e+00
         vertex 1.500000e+00 5.210468e+00 9.532672e+00
      endloop
   endfacet
   facet normal 1.000000e+00 0.000000e+00 -0.000000e+00
      outer loop
         vertex 1.500000e+00 2.852376e-02 1.451226e+00
         vertex 1.500000e+00 1.334443e-01 1.419660e+00
         vertex 1.500000e+00 5.210468e+00 9.532672e+00
      endloop
   endfacet
   facet normal 1.000000e+00 0.000000e+00 -0.000000e+00
      outer loop
         vertex 1.500000e+00 1.334443e-01 1.419660e+00
         vertex 1.500000e+00 2.357808e-01 1.380519e+00
         vertex 1.500000e+00 5.210468e+00 9.532672e+00
      endloop
   endfacet
   facet normal 1.000000e+00 0.000000e+00 -0.000000e+00
      outer loop
         vertex 1.500000e+00 2.357808e-01 1.380519e+00
         vertex 1.500000e+00 3.349872e-01 1.334013e+00
         vertex 1.500000e+00 5.210468e+00 9.532672e+00
      endloop
   endfacet
   facet normal 1.000000e+00 0.000000e+00 -0.000000e+00
      outer loop
         vertex 1.500000e+00 3.349872e-01 1.334013e+00
         vertex 1.500000e+00 4.305342e-01 1.280390e+00
         vertex 1.500000e+00 5.210468e+00 9.532672e+00
      endloop
   endfacet
   facet normal 1.000000e+00 0.000000e+00 -0.000000e+00
      outer loop
         vertex 1.500000e+00 4.305342e-01 1.280390e+00
         vertex 1.500000e+00 5.219120e-01 1.219935e+00
         vertex 1.500000e+00 5.210468e+00 9.532672e+00
      endloop
   endfacet
   facet normal 1.000000e+00 0.000000e+00 -0.000000e+00
      outer loop
         vertex 1.500000e+00 5.219120e-01 1.219935e+00
         vertex 1.500000e+00 6.086332e-01 1.152971e+00
         vertex 1.500000e+00 5.210468e+00 9.532672e+00
      endloop
   endfacet
   facet normal 1.000000e+00 0.000000e+00 -0.000000e+00
      outer loop
         vertex 1.500000e+00 6.086332e-01 1.152971e+00
         vertex 1.500000e+00 6.902350e-01 1.079855e+00
         vertex 1.500000e+00 5.210468e+00 9.532672e+00
      endloop
   endfacet
   facet normal 1.000000e+00 -0.000000e+00 -0.000000e+00
      outer loop
         vertex 1.500000e+00 6.902350e-01 1.079855e+00
         vertex 1.500000e+00 7.662820e-01 1.000978e+00
         vertex 1.500000e+00 5.210468e+00 0.000000e+00
      endloop
   endfacet
   facet normal 1.000000e+00 -0.000000e+00 -0.000000e+00
      outer loop
         vertex 1.500000e+00 7.662820e-01 1.000978e+00
         vertex 1.500000e+00 8.363684e-01 9.167606e-01
         vertex 1.500000e+00 5.210468e+00 0.000000e+00
      endloop
   endfacet
   facet normal 1.000000e+00 -0.000000e+00 -0.000000e+00
      outer loop
         vertex 1.500000e+00 8.363684e-01 9.167606e-01
         vertex 1.500000e+00 9.001204e-01 8.276516e-01
         vertex 1.500000e+00 5.210468e+00 0.000000e+00
      endloop
   endfacet
   facet normal 1.000000e+00 -0.000000e+00 -0.000000e+00
      outer loop
         vertex 1.500000e+00 9.001204e-01 8.276516e-01
         vertex 1.500000e+00 9.571978e-01 7.341267e-01
         vertex 1.500000e+00 5.210468e+00 0.000000e+00
      endloop
   endfacet
   facet normal 1.000000e+00 -0.000000e+00 -0.000000e+00
      outer loop
         vertex 1.500000e+00 9.571978e-01 7.341267e-01
         vertex 1.500000e+00 1.007296e+00 6.366851e-01
         vertex 1.500000e+00 5.210468e+00 0.000000e+00
      endloop
   endfacet
   facet normal 1.000000e+00 -0.000000e+00 -0.000000e+00
      outer loop
         vertex 1.500000e+00 1.007296e+00 6.366851e-01
         vertex 1.500000e+00 1.050148e+00 5.358464e-01
         vertex 1.500000e+00 5.210468e+00 0.000000e+00
      endloop
   endfacet
   facet normal 1.000000e+00 -0.000000e+00 -0.000000e+00
      outer loop
         vertex 1.500000e+00 1.050148e+00 5.358464e-01
         vertex 1.500000e+00 1.085525e+00 4.321486e-01
         vertex 1.500000e+00 5.210468e+00 0.000000e+00
      endloop
   endfacet
   facet normal 1.000000e+00 -0.000000e+00 -0.000000e+00
      outer loop
         vertex 1.500000e+00 1.085525e+00 4.321486e-01
         vertex 1.500000e+00 1.113238e+00 3.261453e-01
         vertex 1.500000e+00 5.210468e+00 0.000000e+00
      endloop
   endfacet
   facet normal 1.000000e+00 -0.000000e+00 -0.000000e+00
      outer loop
         vertex 1.500000e+00 1.113238e+00 3.261453e-01
         vertex 1.500000e+00 1.133139e+00 2.184017e-01
         vertex 1.500000e+00 5.210468e+00 0.000000e+00
      endloop
   endfacet
   facet normal 1.000000e+00 -0.000000e+00 -0.000000e+00
      outer loop
         vertex 1.500000e+00 1.133139e+00 2.184017e-01
         vertex 1.500000e+00 1.145122e+00 1.094930e-01
         vertex 1.500000e+00 5.210468e+00 0.000000e+00
      endloop
   endfacet
   facet normal 1.000000e+00 0.000000e+00 -0.000000e+00
      outer loop
         vertex 1.500000e+00 1.145122e+00 1.094930e-01
         vertex 1.500000e+00 1.149124e+00 0.000000e+00
         vertex 1.500000e+00 5.210468e+00 0.000000e+00
      endloop
   endfacet
   facet normal 1.000000e+00 0.000000e+00 0.000000e+00
      outer loop
         vertex 1.500000e+00 5.210468e+00 0.000000e+00
         vertex 1.500000e+00 5.210468e+00 9.532672e+00
         vertex 1.500000e+00 6.902350e-01 1.079855e+00
      endloop
   endfacet
   facet normal 1.000000e+00 -0.000000e+00 0.000000e+00
      outer loop
         vertex 1.500000e+00 5.210468e+00 9.532672e+00
         vertex 1.500000e+00 -5.210468e+00 9.532672e+00
         vertex 1.500000e+00 -2.960933e-01 1.498999e+00
      endloop
   endfacet
   facet normal 1.000000e+00 0.000000e+00 0.000000e+00
      outer loop
         vertex 1.500000e+00 -5.210468e+00 9.532672e+00
         vertex 1.500000e+00 -5.210468e+00 0.000000e+00
         vertex 1.500000e+00 -1.310386e+00 1.152971e+00
      endloop
   endfacet
   facet normal -1.000000e+00 0.000000e+00 0.000000e+00
      outer loop
         vertex -1.500000e+00 5.210468e+00 0.000000e+00
         vertex -1.500000e+00 1.149124e+00 0.000000e+00
         vertex -1.500000e+00 1.145122e+00 1.094930e-01
      endloop
   endfacet
   facet normal -1.000000e+00 0.000000e+00 0.000000e+00
      outer loop
         vertex -1.500000e+00 1.145122e+00 1.094930e-01
         vertex -1.500000e+00 1.133139e+00 2.184017e-01
         vertex -1.500000e+00 5.210468e+00 0.000000e+00
      endloop
   endfacet
   facet normal -1.000000e+00 0.000000e+00 0.000000e+00
      outer loop
         vertex -1.500000e+00 1.133139e+00 2.184017e-01
         vertex -1.500000e+00 1.113238e+00 3.261453e-01
         vertex -1.500000e+00 5.210468e+00 0.000000e+00
      endloop
   endfacet
   facet normal -1.000000e+00 0.000000e+00 0.000000e+00
      outer loop
         vertex -1.500000e+00 1.113238e+00 3.261453e-01
         vertex -1.500000e+00 1.085525e+00 4.321486e-01
         vertex -1.500000e+00 5.210468e+00 0.000000e+00
      endloop
   endfacet
   facet normal -1.000000e+00 0.000000e+00 0.000000e+00
      outer loop
         vertex -1.500000e+00 1.085525e+00 4.321486e-01
         vertex -1.500000e+00 1.050148e+00 5.358464e-01
         vertex -1.500000e+00 5.210468e+00 0.000000e+00
      endloop
   endfacet
   facet normal -1.000000e+00 0.000000e+00 0.000000e+00
      outer loop
         vertex -1.500000e+00 1.050148e+00 5.358464e-01
         vertex -1.500000e+00 1.007296e+00 6.366851e-01
         vertex -1.500000e+00 5.210468e+00 0.000000e+00
      endloop
   endfacet
   facet normal -1.000000e+00 0.000000e+00 0.000000e+00
      outer loop
         vertex -1.500000e+00 1.007296e+00 6.366851e-01
         vertex -1.500000e+00 9.571978e-01 7.341267e-01
         vertex -1.500000e+00 5.210468e+00 0.000000e+00
      endloop
   endfacet
   facet normal -1.000000e+00 0.000000e+00 0.000000e+00
      outer loop
         vertex -1.500000e+00 9.571978e-01 7.341267e-01
         vertex -1.500000e+00 9.001204e-01 8.276516e-01
         vertex -1.500000e+00 5.210468e+00 0.000000e+00
      endloop
   endfacet
   facet normal -1.000000e+00 0.000000e+00 0.000000e+00
      outer loop
         vertex -1.500000e+00 9.001204e-01 8.276516e-01
         vertex -1.500000e+00 8.363684e-01 9.167606e-01
         vertex -1.500000e+00 5.210468e+00 0.000000e+00
      endloop
   endfacet
   facet normal -1.000000e+00 0.000000e+00 0.000000e+00
      outer loop
         vertex -1.500000e+00 8.363684e-01 9.167606e-01
         vertex -1.500000e+00 7.662820e-01 1.000978e+00
         vertex -1.500000e+00 5.210468e+00 0.000000e+00
      endloop
   endfacet
   facet normal -1.000000e+00 0.000000e+00 0.000000e+00
      outer loop
         vertex -1.500000e+00 7.662820e-01 1.000978e+00
         vertex -1.500000e+00 6.902350e-01 1.079855e+00
         vertex -1.500000e+00 5.210468e+00 0.000000e+00
      endloop
   endfacet
   facet normal -1.000000e+00 0.000000e+00 0.000000e+00
      outer loop
         vertex -1.500000e+00 6.902350e-01 1.079855e+00
         vertex -1.500000e+00 6.086332e-01 1.152971e+00
         vertex -1.500000e+00 5.210468e+00 9.532672e+00
      endloop
   endfacet
   facet normal -1.000000e+00 0.000000e+00 0.000000e+00
      outer loop
         vertex -1.500000e+00 6.086332e-01 1.152971e+00
         vertex -1.500000e+00 5.219120e-01 1.219935e+00
         vertex -1.500000e+00 5.210468e+00 9.532672e+00
      endloop
   endfacet
   facet normal -1.000000e+00 0.000000e+00 0.000000e+00
      outer loop
         vertex -1.500000e+00 5.219120e-01 1.219935e+00
         vertex -1.500000e+00 4.305342e-01 1.280390e+00
         vertex -1.500000e+00 5.210468e+00 9.532672e+00
      endloop
   endfacet
   facet normal -1.000000e+00 0.000000e+00 0.000000e+00
      outer loop
         vertex -1.500000e+00 4.305342e-01 1.280390e+00
         vertex -1.500000e+00 3.349872e-01 1.334013e+00
         vertex -1.500000e+00 5.210468e+00 9.532672e+00
      endloop
   endfacet
   facet normal -1.000000e+00 0.000000e+00 0.000000e+00
      outer loop
         vertex -1.500000e+00 3.349872e-01 1.334013e+00
         vertex -1.500000e+00 2.357808e-01 1.380519e+00
         vertex -1.500000e+00 5.210468e+00 9.532672e+00
      endloop
   endfacet
   facet normal -1.000000e+00 0.000000e+00 0.000000e+00
      outer loop
         vertex -1.500000e+00 2.357808e-01 1.380519e+00
         vertex -1.500000e+00 1.334443e-01 1.419660e+00
         vertex -1.500000e+00 5.210468e+00 9.532672e+00
      endloop
   endfacet
   facet normal -1.000000e+00 0.000000e+00 0.000000e+00
      outer loop
         vertex -1.500000e+00 1.334443e-01 1.419660e+00
         vertex -1.500000e+00 2.852376e-02 1.451226e+00
         vertex -1.500000e+00 5.210468e+00 9.532672e+00
      endloop
   endfacet
   facet normal -1.000000e+00 0.000000e+00 0.000000e+00
      outer loop
         vertex -1.500000e+00 2.852376e-02 1.451226e+00
         vertex -1.500000e+00 -7.842104e-02 1.475049e+00
         vertex -1.500000e+00 5.210468e+00 9.532672e+00
      endloop
   endfacet
   facet normal -1.000000e+00 0.000000e+00 0.000000e+00
      outer loop
         vertex -1.500000e+00 -7.842104e-02 1.475049e+00
         vertex -1.500000e+00 -1.868195e-01 1.491001e+00
         vertex -1.500000e+00 5.210468e+00 9.532672e+00
      endloop
   endfacet
   facet normal -1.000000e+00 0.000000e+00 0.000000e+00
      outer loop
         vertex -1.500000e+00 -1.868195e-01 1.491001e+00
         vertex -1.500000e+00 -2.960933e-01 1.498999e+00
         vertex -1.500000e+00 5.210468e+00 9.532672e+00
      endloop
   endfacet
   facet normal -1.000000e+00 0.000000e+00 0.000000e+00
      outer loop
         vertex -1.500000e+00 -2.960933e-01 1.498999e+00
         vertex -1.500000e+00 -4.056593e-01 1.498999e+00
         vertex -1.500000e+00 -5.210468e+00 9.532672e+00
      endloop
   endfacet
   facet normal -1.000000e+00 0.000000e+00 0.000000e+00
      outer loop
         vertex -1.500000e+00 -4.056593e-01 1.498999e+00
         vertex -1.500000e+00 -5.149331e-01 1.491001e+00
         vertex -1.500000e+00 -5.210468e+00 9.532672e+00
      endloop
   endfacet
   facet normal -1.000000e+00 0.000000e+00 0.000000e+00
      outer loop
         vertex -1.500000e+00 -5.149331e-01 1.491001e+00
         vertex -1.500000e+00 -6.233316e-01 1.475049e+00
         vertex -1.500000e+00 -5.210468e+00 9.532672e+00
      endloop
   endfacet
   facet normal -1.000000e+00 0.000000e+00 0.000000e+00
      outer loop
         vertex -1.500000e+00 -6.233316e-01 1.475049e+00
         vertex -1.500000e+00 -7.302764e-01 1.451226e+00
         vertex -1.500000e+00 -5.210468e+00 9.532672e+00
      endloop
   endfacet
   facet normal -1.000000e+00 0.000000e+00 0.000000e+00
      outer loop
         vertex -1.500000e+00 -7.302764e-01 1.451226e+00
         vertex -1.500000e+00 -8.351969e-01 1.419660e+00
         vertex -1.500000e+00 -5.210468e+00 9.532672e+00
      endloop
   endfacet
   facet normal -1.000000e+00 0.000000e+00 0.000000e+00
      outer loop
         vertex -1.500000e+00 -8.351969e-01 1.419660e+00
         vertex -1.500000e+00 -9.375334e-01 1.380519e+00
         vertex -1.500000e+00 -5.210468e+00 9.532672e+00
      endloop
   endfacet
   facet normal -1.000000e+00 0.000000e+00 0.000000e+00
      outer loop
         vertex -1.500000e+00 -9.375334e-01 1.380519e+00
         vertex -1.500000e+00 -1.036740e+00 1.334013e+00
         vertex -1.500000e+00 -5.210468e+00 9.532672e+00
      endloop
   endfacet
   facet normal -1.000000e+00 0.000000e+00 0.000000e+00
      outer loop
         vertex -1.500000e+00 -1.036740e+00 1.334013e+00
         vertex -1.500000e+00 -1.132287e+00 1.280390e+00
         vertex -1.500000e+00 -5.210468e+00 9.532672e+00
      endloop
   endfacet
   facet normal -1.000000e+00 0.000000e+00 0.000000e+00
      outer loop
         vertex -1.500000e+00 -1.132287e+00 1.280390e+00
         vertex -1.500000e+00 -1.223665e+00 1.219935e+00
         vertex -1.500000e+00 -5.210468e+00 9.532672e+00
      endloop
   endfacet
   facet normal -1.000000e+00 0.000000e+00 0.000000e+00
      outer loop
         vertex -1.500000e+00 -1.223665e+00 1.219935e+00
         vertex -1.500000e+00 -1.310386e+00 1.152971e+00
         vertex -1.500000e+00 -5.210468e+00 9.532672e+00
      endloop
   endfacet
   facet normal -1.000000e+00 -0.000000e+00 0.000000e+00
      outer loop
         vertex -1.500000e+00 -1.310386e+00 1.152971e+00
         vertex -1.500000e+00 -1.391988e+00 1.079855e+00
         vertex -1.500000e+00 -5.210468e+00 0.000000e+00
      endloop
   endfacet
   facet normal -1.000000e+00 -0.000000e+00 0.000000e+00
      outer loop
         vertex -1.500000e+00 -1.391988e+00 1.079855e+00
         vertex -1.500000e+00 -1.468035e+00 1.000978e+00
         vertex -1.500000e+00 -5.210468e+00 0.000000e+00
      endloop
   endfacet
   facet normal -1.000000e+00 -0.000000e+00 0.000000e+00
      outer loop
         vertex -1.500000e+00 -1.468035e+00 1.000978e+00
         vertex -1.500000e+00 -1.538121e+00 9.167606e-01
         vertex -1.500000e+00 -5.210468e+00 0.000000e+00
      endloop
   endfacet
   facet normal -1.000000e+00 -0.000000e+00 0.000000e+00
      outer loop
         vertex -1.500000e+00 -1.538121e+00 9.167606e-01
         vertex -1.500000e+00 -1.601873e+00 8.276516e-01
         vertex -1.500000e+00 -5.210468e+00 0.000000e+00
      endloop
   endfacet
   facet normal -1.000000e+00 -0.000000e+00 0.000000e+00
      outer loop
         vertex -1.500000e+00 -1.601873e+00 8.276516e-01
         vertex -1.500000e+00 -1.658950e+00 7.341267e-01
         vertex -1.500000e+00 -5.210468e+00 0.000000e+00
      endloop
   endfacet
   facet normal -1.000000e+00 -0.000000e+00 0.000000e+00
      outer loop
         vertex -1.500000e+00 -1.658950e+00 7.341267e-01
         vertex -1.500000e+00 -1.709049e+00 6.366851e-01
         vertex -1.500000e+00 -5.210468e+00 0.000000e+00
      endloop
   endfacet
   facet normal -1.000000e+00 -0.000000e+00 0.000000e+00
      outer loop
         vertex -1.500000e+00 -1.709049e+00 6.366851e-01
         vertex -1.500000e+00 -1.751900e+00 5.358464e-01
         vertex -1.500000e+00 -5.210468e+00 0.000000e+00
      endloop
   endfacet
   facet normal -1.000000e+00 -0.000000e+00 0.000000e+00
      outer loop
         vertex -1.500000e+00 -1.751900e+00 5.358464e-01
         vertex -1.500000e+00 -1.787277e+00 4.321486e-01
         vertex -1.500000e+00 -5.210468e+00 0.000000e+00
      endloop
   endfacet
   facet normal -1.000000e+00 -0.000000e+00 0.000000e+00
      outer loop
         vertex -1.500000e+00 -1.787277e+00 4.321486e-01
         vertex -1.500000e+00 -1.814990e+00 3.261453e-01
         vertex -1.500000e+00 -5.210468e+00 0.000000e+00
      endloop
   endfacet
   facet normal -1.000000e+00 -0.000000e+00 0.000000e+00
      outer loop
         vertex -1.500000e+00 -1.814990e+00 3.261453e-01
         vertex -1.500000e+00 -1.834891e+00 2.184017e-01
         vertex -1.500000e+00 -5.210468e+00 0.000000e+00
      endloop
   endfacet
   facet normal -1.000000e+00 -0.000000e+00 0.000000e+00
      outer loop
         vertex -1.500000e+00 -1.834891e+00 2.184017e-01
         vertex -1.500000e+00 -1.846875e+00 1.094930e-01
         vertex -1.500000e+00 -5.210468e+00 0.000000e+00
      endloop
   endfacet
   facet normal -1.000000e+00 0.000000e+00 0.000000e+00
      outer loop
         vertex -1.500000e+00 -1.846875e+00 1.094930e-01
         vertex -1.500000e+00 -1.850876e+00 0.000000e+00
         vertex -1.500000e+00 -5.210468e+00 0.000000e+00
      endloop
   endfacet
   facet normal -1.000000e+00 0.000000e+00 0.000000e+00
      outer loop
         vertex -1.500000e+00 -5.210468e+00 0.000000e+00
         vertex -1.500000e+00 -5.210468e+00 9.532672e+00
         vertex -1.500000e+00 -1.310386e+00 1.152971e+00
      endloop
   endfacet
   facet normal -1.000000e+00 -0.000000e+00 0.000000e+00
      outer loop
         vertex -1.500000e+00 -5.210468e+00 9.532672e+00
         vertex -1.500000e+00 5.210468e+00 9.532672e+00
         vertex -1.500000e+00 -2.960933e-01 1.498999e+00
      endloop
   endfacet
   facet normal -1.000000e+00 0.000000e+00 0.000000e+00
      outer loop
         vertex -1.500000e+00 5.210468e+00 9.532672e+00
         vertex -1.500000e+00 5.210468e+00 0.000000e+00
         vertex -1.500000e+00 6.902350e-01 1.079855e+00
      endloop
   endfacet
   facet normal 0.000000e+00 9.993328e-01 -3.652241e-02
      outer loop
         vertex -1.500000e+00 -1.846875e+00 1.094930e-01
         vertex 1.500000e+00 -1.846875e+00 1.094930e-01
         vertex 1.500000e+00 -1.850876e+00 5.742853e-16
      endloop
   endfacet
   facet normal 0.000000e+00 9.993328e-01 -3.652241e-02
      outer loop
         vertex -1.500000e+00 -1.850876e+00 5.742853e-16
         vertex -1.500000e+00 -1.846875e+00 1.094930e-01
         vertex 1.500000e+00 -1.850876e+00 5.742853e-16
      endloop
   endfacet
   facet normal 0.000000e+00 9.940010e-01 -1.093714e-01
      outer loop
         vertex -1.500000e+00 -1.834891e+00 2.184017e-01
         vertex 1.500000e+00 -1.834891e+00 2.184017e-01
         vertex 1.500000e+00 -1.846875e+00 1.094930e-01
      endloop
   endfacet
   facet normal 0.000000e+00 9.940010e-01 -1.093714e-01
      outer loop
         vertex -1.500000e+00 -1.846875e+00 1.094930e-01
         vertex -1.500000e+00 -1.834891e+00 2.184017e-01
         vertex 1.500000e+00 -1.846875e+00 1.094930e-01
      endloop
   endfacet
   facet normal 0.000000e+00 9.833658e-01 -1.816361e-01
      outer loop
         vertex -1.500000e+00 -1.814990e+00 3.261453e-01
         vertex 1.500000e+00 -1.814990e+00 3.261453e-01
         vertex 1.500000e+00 -1.834891e+00 2.184017e-01
      endloop
   endfacet
   facet normal 0.000000e+00 9.833658e-01 -1.816361e-01
      outer loop
         vertex -1.500000e+00 -1.834891e+00 2.184017e-01
         vertex -1.500000e+00 -1.814990e+00 3.261453e-01
         vertex 1.500000e+00 -1.834891e+00 2.184017e-01
      endloop
   endfacet
   facet normal 0.000000e+00 9.674836e-01 -2.529336e-01
      outer loop
         vertex -1.500000e+00 -1.787277e+00 4.321486e-01
         vertex 1.500000e+00 -1.787277e+00 4.321486e-01
         vertex 1.500000e+00 -1.814990e+00 3.261453e-01
      endloop
   endfacet
   facet normal 0.000000e+00 9.674836e-01 -2.529336e-01
      outer loop
         vertex -1.500000e+00 -1.814990e+00 3.261453e-01
         vertex -1.500000e+00 -1.787277e+00 4.321486e-01
         vertex 1.500000e+00 -1.814990e+00 3.261453e-01
      endloop
   endfacet
   facet normal 0.000000e+00 9.464397e-01 -3.228807e-01
      outer loop
         vertex -1.500000e+00 -1.751900e+00 5.358464e-01
         vertex 1.500000e+00 -1.751900e+00 5.358464e-01
         vertex 1.500000e+00 -1.787277e+00 4.321486e-01
      endloop
   endfacet
   facet normal 0.000000e+00 9.464397e-01 -3.228807e-01
      outer loop
         vertex -1.500000e+00 -1.787277e+00 4.321486e-01
         vertex -1.500000e+00 -1.751900e+00 5.358464e-01
         vertex 1.500000e+00 -1.787277e+00 4.321486e-01
      endloop
   endfacet
   facet normal 0.000000e+00 9.203462e-01 -3.911047e-01
      outer loop
         vertex -1.500000e+00 -1.709049e+00 6.366851e-01
         vertex 1.500000e+00 -1.709049e+00 6.366851e-01
         vertex 1.500000e+00 -1.751900e+00 5.358464e-01
      endloop
   endfacet
   facet normal 0.000000e+00 9.203462e-01 -3.911047e-01
      outer loop
         vertex -1.500000e+00 -1.751900e+00 5.358464e-01
         vertex -1.500000e+00 -1.709049e+00 6.366851e-01
         vertex 1.500000e+00 -1.751900e+00 5.358464e-01
      endloop
   endfacet
   facet normal 0.000000e+00 8.893423e-01 -4.572421e-01
      outer loop
         vertex -1.500000e+00 -1.658950e+00 7.341267e-01
         vertex 1.500000e+00 -1.658950e+00 7.341267e-01
         vertex 1.500000e+00 -1.709049e+00 6.366851e-01
      endloop
   endfacet
   facet normal 0.000000e+00 8.893423e-01 -4.572421e-01
      outer loop
         vertex -1.500000e+00 -1.709049e+00 6.366851e-01
         vertex -1.500000e+00 -1.658950e+00 7.341267e-01
         vertex 1.500000e+00 -1.709049e+00 6.366851e-01
      endloop
   endfacet
   facet normal 0.000000e+00 8.535931e-01 -5.209404e-01
      outer loop
         vertex -1.500000e+00 -1.601873e+00 8.276516e-01
         vertex 1.500000e+00 -1.601873e+00 8.276516e-01
         vertex 1.500000e+00 -1.658950e+00 7.341267e-01
      endloop
   endfacet
   facet normal 0.000000e+00 8.535931e-01 -5.209404e-01
      outer loop
         vertex -1.500000e+00 -1.658950e+00 7.341267e-01
         vertex -1.500000e+00 -1.601873e+00 8.276516e-01
         vertex 1.500000e+00 -1.658950e+00 7.341267e-01
      endloop
   endfacet
   facet normal 0.000000e+00 8.132899e-01 -5.818586e-01
      outer loop
         vertex -1.500000e+00 -1.538121e+00 9.167606e-01
         vertex 1.500000e+00 -1.538121e+00 9.167606e-01
         vertex 1.500000e+00 -1.601873e+00 8.276516e-01
      endloop
   endfacet
   facet normal 0.000000e+00 8.132899e-01 -5.818586e-01
      outer loop
         vertex -1.500000e+00 -1.601873e+00 8.276516e-01
         vertex -1.500000e+00 -1.538121e+00 9.167606e-01
         vertex 1.500000e+00 -1.601873e+00 8.276516e-01
      endloop
   endfacet
   facet normal 0.000000e+00 7.686471e-01 -6.396730e-01
      outer loop
         vertex -1.500000e+00 -1.468035e+00 1.000978e+00
         vertex 1.500000e+00 -1.468035e+00 1.000978e+00
         vertex 1.500000e+00 -1.538121e+00 9.167606e-01
      endloop
   endfacet
   facet normal 0.000000e+00 7.686471e-01 -6.396730e-01
      outer loop
         vertex -1.500000e+00 -1.538121e+00 9.167606e-01
         vertex -1.500000e+00 -1.468035e+00 1.000978e+00
         vertex 1.500000e+00 -1.538121e+00 9.167606e-01
      endloop
   endfacet
   facet normal 0.000000e+00 7.199030e-01 -6.940747e-01
      outer loop
         vertex -1.500000e+00 -1.391988e+00 1.079855e+00
         vertex 1.500000e+00 -1.391988e+00 1.079855e+00
         vertex 1.500000e+00 -1.468035e+00 1.000978e+00
      endloop
   endfacet
   facet normal 0.000000e+00 7.199030e-01 -6.940747e-01
      outer loop
         vertex -1.500000e+00 -1.468035e+00 1.000978e+00
         vertex -1.500000e+00 -1.391988e+00 1.079855e+00
         vertex 1.500000e+00 -1.468035e+00 1.000978e+00
      endloop
   endfacet
   facet normal 0.000000e+00 6.673188e-01 -7.447722e-01
      outer loop
         vertex -1.500000e+00 -1.310386e+00 1.152971e+00
         vertex 1.500000e+00 -1.310386e+00 1.152971e+00
         vertex 1.500000e+00 -1.391988e+00 1.079855e+00
      endloop
   endfacet
   facet normal 0.000000e+00 6.673188e-01 -7.447722e-01
      outer loop
         vertex -1.500000e+00 -1.391988e+00 1.079855e+00
         vertex -1.500000e+00 -1.310386e+00 1.152971e+00
         vertex 1.500000e+00 -1.391988e+00 1.079855e+00
      endloop
   endfacet
   facet normal 0.000000e+00 6.111737e-01 -7.914965e-01
      outer loop
         vertex -1.500000e+00 -1.223665e+00 1.219935e+00
         vertex 1.500000e+00 -1.223665e+00 1.219935e+00
         vertex 1.500000e+00 -1.310386e+00 1.152971e+00
      endloop
   endfacet
   facet normal 0.000000e+00 6.111737e-01 -7.914965e-01
      outer loop
         vertex -1.500000e+00 -1.310386e+00 1.152971e+00
         vertex -1.500000e+00 -1.223665e+00 1.219935e+00
         vertex 1.500000e+00 -1.310386e+00 1.152971e+00
      endloop
   endfacet
   facet normal 0.000000e+00 5.517682e-01 -8.339975e-01
      outer loop
         vertex -1.500000e+00 -1.132287e+00 1.280390e+00
         vertex 1.500000e+00 -1.132287e+00 1.280390e+00
         vertex 1.500000e+00 -1.223665e+00 1.219935e+00
      endloop
   endfacet
   facet normal 0.000000e+00 5.517682e-01 -8.339975e-01
      outer loop
         vertex -1.500000e+00 -1.223665e+00 1.219935e+00
         vertex -1.500000e+00 -1.132287e+00 1.280390e+00
         vertex 1.500000e+00 -1.223665e+00 1.219935e+00
      endloop
   endfacet
   facet normal 0.000000e+00 4.894179e-01 -8.720494e-01
      outer loop
         vertex -1.500000e+00 -1.036740e+00 1.334013e+00
         vertex 1.500000e+00 -1.036740e+00 1.334013e+00
         vertex 1.500000e+00 -1.132287e+00 1.280390e+00
      endloop
   endfacet
   facet normal 0.000000e+00 4.894179e-01 -8.720494e-01
      outer loop
         vertex -1.500000e+00 -1.132287e+00 1.280390e+00
         vertex -1.500000e+00 -1.036740e+00 1.334013e+00
         vertex 1.500000e+00 -1.132287e+00 1.280390e+00
      endloop
   endfacet
   facet normal 0.000000e+00 4.244565e-01 -9.054483e-01
      outer loop
         vertex -1.500000e+00 -9.375334e-01 1.380519e+00
         vertex 1.500000e+00 -9.375334e-01 1.380519e+00
         vertex 1.500000e+00 -1.036740e+00 1.334013e+00
      endloop
   endfacet
   facet normal 0.000000e+00 4.244565e-01 -9.054483e-01
      outer loop
         vertex -1.500000e+00 -1.036740e+00 1.334013e+00
         vertex -1.500000e+00 -9.375334e-01 1.380519e+00
         vertex 1.500000e+00 -1.036740e+00 1.334013e+00
      endloop
   endfacet
   facet normal 0.000000e+00 3.572306e-01 -9.340162e-01
      outer loop
         vertex -1.500000e+00 -8.351969e-01 1.419660e+00
         vertex 1.500000e+00 -8.351969e-01 1.419660e+00
         vertex 1.500000e+00 -9.375334e-01 1.380519e+00
      endloop
   endfacet
   facet normal 0.000000e+00 3.572306e-01 -9.340162e-01
      outer loop
         vertex -1.500000e+00 -9.375334e-01 1.380519e+00
         vertex -1.500000e+00 -8.351969e-01 1.419660e+00
         vertex 1.500000e+00 -9.375334e-01 1.380519e+00
      endloop
   endfacet
   facet normal 0.000000e+00 2.880993e-01 -9.576005e-01
      outer loop
         vertex -1.500000e+00 -7.302764e-01 1.451226e+00
         vertex 1.500000e+00 -7.302764e-01 1.451226e+00
         vertex 1.500000e+00 -8.351969e-01 1.419660e+00
      endloop
   endfacet
   facet normal 0.000000e+00 2.880993e-01 -9.576005e-01
      outer loop
         vertex -1.500000e+00 -8.351969e-01 1.419660e+00
         vertex -1.500000e+00 -7.302764e-01 1.451226e+00
         vertex 1.500000e+00 -8.351969e-01 1.419660e+00
      endloop
   endfacet
   facet normal 0.000000e+00 2.174306e-01 -9.760758e-01
      outer loop
         vertex -1.500000e+00 -6.233316e-01 1.475049e+00
         vertex 1.500000e+00 -6.233316e-01 1.475049e+00
         vertex 1.500000e+00 -7.302764e-01 1.451226e+00
      endloop
   endfacet
   facet normal 0.000000e+00 2.174306e-01 -9.760758e-01
      outer loop
         vertex -1.500000e+00 -7.302764e-01 1.451226e+00
         vertex -1.500000e+00 -6.233316e-01 1.475049e+00
         vertex 1.500000e+00 -7.302764e-01 1.451226e+00
      endloop
   endfacet
   facet normal 0.000000e+00 1.456011e-01 -9.893434e-01
      outer loop
         vertex -1.500000e+00 -5.149331e-01 1.491001e+00
         vertex 1.500000e+00 -5.149331e-01 1.491001e+00
         vertex 1.500000e+00 -6.233316e-01 1.475049e+00
      endloop
   endfacet
   facet normal 0.000000e+00 1.456011e-01 -9.893434e-01
      outer loop
         vertex -1.500000e+00 -6.233316e-01 1.475049e+00
         vertex -1.500000e+00 -5.149331e-01 1.491001e+00
         vertex 1.500000e+00 -6.233316e-01 1.475049e+00
      endloop
   endfacet
   facet normal 0.000000e+00 7.299479e-02 -9.973323e-01
      outer loop
         vertex -1.500000e+00 -4.056593e-01 1.498999e+00
         vertex 1.500000e+00 -4.056593e-01 1.498999e+00
         vertex 1.500000e+00 -5.149331e-01 1.491001e+00
      endloop
   endfacet
   facet normal 0.000000e+00 7.299479e-02 -9.973323e-01
      outer loop
         vertex -1.500000e+00 -5.149331e-01 1.491001e+00
         vertex -1.500000e+00 -4.056593e-01 1.498999e+00
         vertex 1.500000e+00 -5.149331e-01 1.491001e+00
      endloop
   endfacet
   facet normal -0.000000e+00 -0.000000e+00 -1.000000e+00
      outer loop
         vertex -1.500000e+00 -2.960933e-01 1.498999e+00
         vertex 1.500000e+00 -2.960933e-01 1.498999e+00
         vertex 1.500000e+00 -4.056593e-01 1.498999e+00
      endloop
   endfacet
   facet normal 0.000000e+00 0.000000e+00 -1.000000e+00
      outer loop
         vertex -1.500000e+00 -4.056593e-01 1.498999e+00
         vertex -1.500000e+00 -2.960933e-01 1.498999e+00
         vertex 1.500000e+00 -4.056593e-01 1.498999e+00
      endloop
   endfacet
   facet normal -0.000000e+00 -7.299478e-02 -9.973323e-01
      outer loop
         vertex -1.500000e+00 -1.868195e-01 1.491001e+00
         vertex 1.500000e+00 -1.868195e-01 1.491001e+00
         vertex 1.500000e+00 -2.960933e-01 1.498999e+00
      endloop
   endfacet
   facet normal 0.000000e+00 -7.299478e-02 -9.973323e-01
      outer loop
         vertex -1.500000e+00 -2.960933e-01 1.498999e+00
         vertex -1.500000e+00 -1.868195e-01 1.491001e+00
         vertex 1.500000e+00 -2.960933e-01 1.498999e+00
      endloop
   endfacet
   facet normal -0.000000e+00 -1.456011e-01 -9.893434e-01
      outer loop
         vertex -1.500000e+00 -7.842104e-02 1.475049e+00
         vertex 1.500000e+00 -7.842104e-02 1.475049e+00
         vertex 1.500000e+00 -1.868195e-01 1.491001e+00
      endloop
   endfacet
   facet normal 0.000000e+00 -1.456011e-01 -9.893434e-01
      outer loop
         vertex -1.500000e+00 -1.868195e-01 1.491001e+00
         vertex -1.500000e+00 -7.842104e-02 1.475049e+00
         vertex 1.500000e+00 -1.868195e-01 1.491001e+00
      endloop
   endfacet
   facet normal -0.000000e+00 -2.174306e-01 -9.760758e-01
      outer loop
         vertex -1.500000e+00 2.852376e-02 1.451226e+00
         vertex 1.500000e+00 2.852376e-02 1.451226e+00
         vertex 1.500000e+00 -7.842104e-02 1.475049e+00
      endloop
   endfacet
   facet normal 0.000000e+00 -2.174306e-01 -9.760758e-01
      outer loop
         vertex -1.500000e+00 -7.842104e-02 1.475049e+00
         vertex -1.500000e+00 2.852376e-02 1.451226e+00
         vertex 1.500000e+00 -7.842104e-02 1.475049e+00
      endloop
   endfacet
   facet normal -0.000000e+00 -2.880992e-01 -9.576006e-01
      outer loop
         vertex -1.500000e+00 1.334443e-01 1.419660e+00
         vertex 1.500000e+00 1.334443e-01 1.419660e+00
         vertex 1.500000e+00 2.852376e-02 1.451226e+00
      endloop
   endfacet
   facet normal 0.000000e+00 -2.880992e-01 -9.576006e-01
      outer loop
         vertex -1.500000e+00 2.852376e-02 1.451226e+00
         vertex -1.500000e+00 1.334443e-01 1.419660e+00
         vertex 1.500000e+00 2.852376e-02 1.451226e+00
      endloop
   endfacet
   facet normal -0.000000e+00 -3.572306e-01 -9.340162e-01
      outer loop
         vertex -1.500000e+00 2.357808e-01 1.380519e+00
         vertex 1.500000e+00 2.357808e-01 1.380519e+00
         vertex 1.500000e+00 1.334443e-01 1.419660e+00
      endloop
   endfacet
   facet normal 0.000000e+00 -3.572306e-01 -9.340162e-01
      outer loop
         vertex -1.500000e+00 1.334443e-01 1.419660e+00
         vertex -1.500000e+00 2.357808e-01 1.380519e+00
         vertex 1.500000e+00 1.334443e-01 1.419660e+00
      endloop
   endfacet
   facet normal -0.000000e+00 -4.244567e-01 -9.054483e-01
      outer loop
         vertex -1.500000e+00 3.349872e-01 1.334013e+00
         vertex 1.500000e+00 3.349872e-01 1.334013e+00
         vertex 1.500000e+00 2.357808e-01 1.380519e+00
      endloop
   endfacet
   facet normal 0.000000e+00 -4.244567e-01 -9.054483e-01
      outer loop
         vertex -1.500000e+00 2.357808e-01 1.380519e+00
         vertex -1.500000e+00 3.349872e-01 1.334013e+00
         vertex 1.500000e+00 2.357808e-01 1.380519e+00
      endloop
   endfacet
   facet normal -0.000000e+00 -4.894176e-01 -8.720495e-01
      outer loop
         vertex -1.500000e+00 4.305342e-01 1.280390e+00
         vertex 1.500000e+00 4.305342e-01 1.280390e+00
         vertex 1.500000e+00 3.349872e-01 1.334013e+00
      endloop
   endfacet
   facet normal 0.000000e+00 -4.894176e-01 -8.720495e-01
      outer loop
         vertex -1.500000e+00 3.349872e-01 1.334013e+00
         vertex -1.500000e+00 4.305342e-01 1.280390e+00
         vertex 1.500000e+00 3.349872e-01 1.334013e+00
      endloop
   endfacet
   facet normal -0.000000e+00 -5.517682e-01 -8.339975e-01
      outer loop
         vertex -1.500000e+00 5.219120e-01 1.219935e+00
         vertex 1.500000e+00 5.219120e-01 1.219935e+00
         vertex 1.500000e+00 4.305342e-01 1.280390e+00
      endloop
   endfacet
   facet normal 0.000000e+00 -5.517682e-01 -8.339975e-01
      outer loop
         vertex -1.500000e+00 4.305342e-01 1.280390e+00
         vertex -1.500000e+00 5.219120e-01 1.219935e+00
         vertex 1.500000e+00 4.305342e-01 1.280390e+00
      endloop
   endfacet
   facet normal -0.000000e+00 -6.111737e-01 -7.914965e-01
      outer loop
         vertex -1.500000e+00 6.086332e-01 1.152971e+00
         vertex 1.500000e+00 6.086332e-01 1.152971e+00
         vertex 1.500000e+00 5.219120e-01 1.219935e+00
      endloop
   endfacet
   facet normal 0.000000e+00 -6.111737e-01 -7.914965e-01
      outer loop
         vertex -1.500000e+00 5.219120e-01 1.219935e+00
         vertex -1.500000e+00 6.086332e-01 1.152971e+00
         vertex 1.500000e+00 5.219120e-01 1.219935e+00
      endloop
   endfacet
   facet normal -0.000000e+00 -6.673188e-01 -7.447722e-01
      outer loop
         vertex -1.500000e+00 6.902350e-01 1.079855e+00
         vertex 1.500000e+00 6.902350e-01 1.079855e+00
         vertex 1.500000e+00 6.086332e-01 1.152971e+00
      endloop
   endfacet
   facet normal 0.000000e+00 -6.673188e-01 -7.447722e-01
      outer loop
         vertex -1.500000e+00 6.086332e-01 1.152971e+00
         vertex -1.500000e+00 6.902350e-01 1.079855e+00
         vertex 1.500000e+00 6.086332e-01 1.152971e+00
      endloop
   endfacet
   facet normal -0.000000e+00 -7.199033e-01 -6.940744e-01
      outer loop
         vertex -1.500000e+00 7.662820e-01 1.000978e+00
         vertex 1.500000e+00 7.662820e-01 1.000978e+00
         vertex 1.500000e+00 6.902350e-01 1.079855e+00
      endloop
   endfacet
   facet normal 0.000000e+00 -7.199033e-01 -6.940744e-01
      outer loop
         vertex -1.500000e+00 6.902350e-01 1.079855e+00
         vertex -1.500000e+00 7.662820e-01 1.000978e+00
         vertex 1.500000e+00 6.902350e-01 1.079855e+00
      endloop
   endfacet
   facet normal -0.000000e+00 -7.686471e-01 -6.396730e-01
      outer loop
         vertex -1.500000e+00 8.363684e-01 9.167606e-01
         vertex 1.500000e+00 8.363684e-01 9.167606e-01
         vertex 1.500000e+00 7.662820e-01 1.000978e+00
      endloop
   endfacet
   facet normal 0.000000e+00 -7.686471e-01 -6.396730e-01
      outer loop
         vertex -1.500000e+00 7.662820e-01 1.000978e+00
         vertex -1.500000e+00 8.363684e-01 9.167606e-01
         vertex 1.500000e+00 7.662820e-01 1.000978e+00
      endloop
   endfacet
   facet normal -0.000000e+00 -8.132897e-01 -5.818590e-01
      outer loop
         vertex -1.500000e+00 9.001204e-01 8.276516e-01
         vertex 1.500000e+00 9.001204e-01 8.276516e-01
         vertex 1.500000e+00 8.363684e-01 9.167606e-01
      endloop
   endfacet
   facet normal 0.000000e+00 -8.132897e-01 -5.818590e-01
      outer loop
         vertex -1.500000e+00 8.363684e-01 9.167606e-01
         vertex -1.500000e+00 9.001204e-01 8.276516e-01
         vertex 1.500000e+00 8.363684e-01 9.167606e-01
      endloop
   endfacet
   facet normal -0.000000e+00 -8.535933e-01 -5.209400e-01
      outer loop
         vertex -1.500000e+00 9.571978e-01 7.341267e-01
         vertex 1.500000e+00 9.571978e-01 7.341267e-01
         vertex 1.500000e+00 9.001204e-01 8.276516e-01
      endloop
   endfacet
   facet normal 0.000000e+00 -8.535933e-01 -5.209400e-01
      outer loop
         vertex -1.500000e+00 9.001204e-01 8.276516e-01
         vertex -1.500000e+00 9.571978e-01 7.341267e-01
         vertex 1.500000e+00 9.001204e-01 8.276516e-01
      endloop
   endfacet
   facet normal -0.000000e+00 -8.893418e-01 -4.572429e-01
      outer loop
         vertex -1.500000e+00 1.007296e+00 6.366851e-01
         vertex 1.500000e+00 1.007296e+00 6.366851e-01
         vertex 1.500000e+00 9.571978e-01 7.341267e-01
      endloop
   endfacet
   facet normal 0.000000e+00 -8.893418e-01 -4.572429e-01
      outer loop
         vertex -1.500000e+00 9.571978e-01 7.341267e-01
         vertex -1.500000e+00 1.007296e+00 6.366851e-01
         vertex 1.500000e+00 9.571978e-01 7.341267e-01
      endloop
   endfacet
   facet normal -0.000000e+00 -9.203462e-01 -3.911047e-01
      outer loop
         vertex -1.500000e+00 1.050148e+00 5.358464e-01
         vertex 1.500000e+00 1.050148e+00 5.358464e-01
         vertex 1.500000e+00 1.007296e+00 6.366851e-01
      endloop
   endfacet
   facet normal 0.000000e+00 -9.203462e-01 -3.911047e-01
      outer loop
         vertex -1.500000e+00 1.007296e+00 6.366851e-01
         vertex -1.500000e+00 1.050148e+00 5.358464e-01
         vertex 1.500000e+00 1.007296e+00 6.366851e-01
      endloop
   endfacet
   facet normal -0.000000e+00 -9.464400e-01 -3.228798e-01
      outer loop
         vertex -1.500000e+00 1.085525e+00 4.321486e-01
         vertex 1.500000e+00 1.085525e+00 4.321486e-01
         vertex 1.500000e+00 1.050148e+00 5.358464e-01
      endloop
   endfacet
   facet normal 0.000000e+00 -9.464400e-01 -3.228798e-01
      outer loop
         vertex -1.500000e+00 1.050148e+00 5.358464e-01
         vertex -1.500000e+00 1.085525e+00 4.321486e-01
         vertex 1.500000e+00 1.050148e+00 5.358464e-01
      endloop
   endfacet
   facet normal -0.000000e+00 -9.674836e-01 -2.529336e-01
      outer loop
         vertex -1.500000e+00 1.113238e+00 3.261453e-01
         vertex 1.500000e+00 1.113238e+00 3.261453e-01
         vertex 1.500000e+00 1.085525e+00 4.321486e-01
      endloop
   endfacet
   facet normal 0.000000e+00 -9.674836e-01 -2.529336e-01
      outer loop
         vertex -1.500000e+00 1.085525e+00 4.321486e-01
         vertex -1.500000e+00 1.113238e+00 3.261453e-01
         vertex 1.500000e+00 1.085525e+00 4.321486e-01
      endloop
   endfacet
   facet normal -0.000000e+00 -9.833656e-01 -1.816372e-01
      outer loop
         vertex -1.500000e+00 1.133139e+00 2.184017e-01
         vertex 1.500000e+00 1.133139e+00 2.184017e-01
         vertex 1.500000e+00 1.113238e+00 3.261453e-01
      endloop
   endfacet
   facet normal 0.000000e+00 -9.833656e-01 -1.816372e-01
      outer loop
         vertex -1.500000e+00 1.113238e+00 3.261453e-01
         vertex -1.500000e+00 1.133139e+00 2.184017e-01
         vertex 1.500000e+00 1.113238e+00 3.261453e-01
      endloop
   endfacet
   facet normal -0.000000e+00 -9.940011e-01 -1.093703e-01
      outer loop
         vertex -1.500000e+00 1.145122e+00 1.094930e-01
         vertex 1.500000e+00 1.145122e+00 1.094930e-01
         vertex 1.500000e+00 1.133139e+00 2.184017e-01
      endloop
   endfacet
   facet normal 0.000000e+00 -9.940011e-01 -1.093703e-01
      outer loop
         vertex -1.500000e+00 1.133139e+00 2.184017e-01
         vertex -1.500000e+00 1.145122e+00 1.094930e-01
         vertex 1.500000e+00 1.133139e+00 2.184017e-01
      endloop
   endfacet
   facet normal -0.000000e+00 -9.993328e-01 -3.652241e-02
      outer loop
         vertex -1.500000e+00 1.149124e+00 2.755455e-16
         vertex 1.500000e+00 1.149124e+00 2.755455e-16
         vertex 1.500000e+00 1.145122e+00 1.094930e-01
      endloop
   endfacet
   facet normal 0.000000e+00 -9.993328e-01 -3.652241e-02
      outer loop
         vertex -1.500000e+00 1.145122e+00 1.094930e-01
         vertex -1.500000e+00 1.149124e+00 2.755455e-16
         vertex 1.500000e+00 1.145122e+00 1.094930e-01
      endloop
   endfacet
   facet normal -7.071068e-01 -7.071067e-01 0.000000e+00
      outer loop
         vertex -1.466526e-14 -3.710468e+00 9.532672e+00
         vertex -1.466526e-14 -3.710468e+00 0.000000e+00
         vertex 1.500000e+00 -5.210468e+00 0.000000e+00
      endloop
   endfacet
   facet normal -7.071068e-01 -7.071067e-01 -0.000000e+00
      outer loop
         vertex 1.500000e+00 -5.210468e+00 0.000000e+00
         vertex 1.500000e+00 -5.210468e+00 9.532672e+00
         vertex -1.466526e-14 -3.710468e+00 9.532672e+00
      endloop
   endfacet
   facet normal 7.071068e-01 -7.071067e-01 0.000000e+00
      outer loop
         vertex -1.500000e+00 -5.210468e+00 9.532672e+00
         vertex -1.500000e+00 -5.210468e+00 0.000000e+00
         vertex -1.466526e-14 -3.710468e+00 0.000000e+00
      endloop
   endfacet
   facet normal 7.071068e-01 -7.071067e-01 0.000000e+00
      outer loop
         vertex -1.466526e-14 -3.710468e+00 0.000000e+00
         vertex -1.466526e-14 -3.710468e+00 9.532672e+00
         vertex -1.500000e+00 -5.210468e+00 9.532672e+00
      endloop
   endfacet
   facet normal 7.071068e-01 7.071067e-01 -0.000000e+00
      outer loop
         vertex 4.544013e-16 3.710468e+00 9.532672e+00
         vertex 4.544013e-16 3.710468e+00 0.000000e+00
         vertex -1.500000e+00 5.210468e+00 0.000000e+00
      endloop
   endfacet
   facet normal 7.071068e-01 7.071067e-01 0.000000e+00
      outer loop
         vertex -1.500000e+00 5.210468e+00 0.000000e+00
         vertex -1.500000e+00 5.210468e+00 9.532672e+00
         vertex 4.544013e-16 3.710468e+00 9.532672e+00
      endloop
   endfacet
   facet normal -7.071068e-01 7.071067e-01 0.000000e+00
      outer loop
         vertex 1.500000e+00 5.210468e+00 9.532672e+00
         vertex 1.500000e+00 5.210468e+00 0.000000e+00
         vertex 4.544013e-16 3.710468e+00 0.000000e+00
      endloop
   endfacet
   facet normal -7.071068e-01 7.071067e-01 0.000000e+00
      outer loop
         vertex 4.544013e-16 3.710468e+00 0.000000e+00
         vertex 4.544013e-16 3.710468e+00 9.532672e+00
         vertex 1.500000e+00 5.210468e+00 9.532672e+00
      endloop
   endfacet
   facet normal 0.000000e+00 0.000000e+00 1.000000e+00
      outer loop
         vertex 4.544013e-16 3.710468e+00 9.532672e+00
         vertex -1.500000e+00 5.210468e+00 9.532672e+00
         vertex -1.466526e-14 -3.710468e+00 9.532672e+00
      endloop
   endfacet
   facet normal 0.000000e+00 0.000000e+00 1.000000e+00
      outer loop
         vertex -1.500000e+00 5.210468e+00 9.532672e+00
         vertex -1.500000e+00 -5.210468e+00 9.532672e+00
         vertex -1.466526e-14 -3.710468e+00 9.532672e+00
      endloop
   endfacet
   facet normal 0.000000e+00 -0.000000e+00 1.000000e+00
      outer loop
         vertex -1.466526e-14 -3.710468e+00 9.532672e+00
         vertex 1.500000e+00 -5.210468e+00 9.532672e+00
         vertex 1.500000e+00 5.210468e+00 9.532672e+00
      endloop
   endfacet
   facet normal -0.000000e+00 0.000000e+00 1.000000e+00
      outer loop
         vertex 1.500000e+00 5.210468e+00 9.532672e+00
         vertex 4.544013e-16 3.710468e+00 9.532672e+00
         vertex -1.466526e-14 -3.710468e+00 9.532672e+00
      endloop
   endfacet
endsolid
